<svg width="1718" height="1394" xmlns="http://www.w3.org/2000/svg" xmlns:xlink="http://www.w3.org/1999/xlink" xml:space="preserve" overflow="hidden"><defs><clipPath id="clip0"><rect x="1341" y="454" width="1718" height="1394"/></clipPath></defs><g clip-path="url(#clip0)" transform="translate(-1341 -454)"><path d="M1341 1693 3059 1693 3059 1694 1341 1694Z" fill="#EBEBEB" fill-rule="evenodd"/><path d="M2773 1748 2887 1748 2887 1749 2773 1749Z" fill="#EBEBEB" fill-rule="evenodd"/><path d="M2236 1737 2280 1737 2280 1738 2236 1738Z" fill="#EBEBEB" fill-rule="evenodd"/><path d="M2449 1741 2543 1741 2543 1742 2449 1742Z" fill="#EBEBEB" fill-rule="evenodd"/><path d="M2577 1716 2770 1716 2770 1717 2577 1717Z" fill="#EBEBEB" fill-rule="evenodd"/><path d="M1521 1756 1612 1756 1612 1757 1521 1757Z" fill="#EBEBEB" fill-rule="evenodd"/><path d="M1643 1756 1722 1756 1722 1757 1643 1757Z" fill="#EBEBEB" fill-rule="evenodd"/><path d="M1791 1737 2000 1737 2000 1738 1791 1738Z" fill="#EBEBEB" fill-rule="evenodd"/><path d="M2155.37 1539 1491.59 1539C1480.77 1538.98 1472 1530.2 1472 1519.37L1472 586.454C1472.09 575.695 1480.83 567.018 1491.59 567L2155.37 567C2166.21 567 2175 575.786 2175 586.625L2175 1519.37C2175 1530.21 2166.21 1539 2155.37 1539ZM1491.59 567.687C1481.24 567.706 1472.86 576.103 1472.86 586.454L1472.86 1519.37C1472.86 1529.73 1481.24 1538.12 1491.59 1538.14L2155.37 1538.14C2165.73 1538.12 2174.12 1529.73 2174.14 1519.37L2174.14 586.454C2174.12 576.097 2165.73 567.706 2155.37 567.687Z" fill="#EBEBEB" fill-rule="evenodd"/><path d="M2898.44 1539 2234.63 1539C2223.8 1538.98 2215.02 1530.21 2215 1519.37L2215 586.454C2215.11 575.69 2223.86 567.018 2234.63 567L2898.44 567C2909.19 567.037 2917.91 575.708 2918 586.454L2918 1519.37C2918 1530.19 2909.25 1538.96 2898.44 1539ZM2234.63 567.687C2224.27 567.706 2215.88 576.097 2215.86 586.454L2215.86 1519.37C2215.88 1529.73 2224.27 1538.12 2234.63 1538.14L2898.44 1538.14C2908.8 1538.12 2917.19 1529.73 2917.21 1519.37L2917.21 586.454C2917.19 576.097 2908.8 567.706 2898.44 567.687Z" fill="#EBEBEB" fill-rule="evenodd"/><path d="M2946.6 1045.69C2957.38 1008.44 2956.18 968.746 2943.16 932.217 2993.75 859.84 2976.05 760.18 2903.64 709.62 2893.45 702.507 2882.47 696.605 2870.91 692.033 2849.96 541.097 2710.56 435.713 2559.54 456.651 2514.25 462.929 2471.24 480.35 2434.35 507.348 2380.63 450.962 2291.34 448.78 2234.93 502.474 2207.27 528.8 2191.47 565.213 2191.15 603.387 2075.81 626.51 2001.07 738.704 2024.2 853.979 2031.27 889.19 2047.13 922.043 2070.32 949.478 2027.39 1026.85 2055.34 1124.36 2132.76 1167.28 2143.31 1173.12 2154.48 1177.76 2166.07 1181.1 2193.09 1188.93 2221.71 1189.47 2249.02 1182.68 2325.83 1288.48 2471.75 1316.29 2582.12 1246.16 2608.03 1306.3 2629.29 1396.53 2583.5 1485 2749.84 1468.7 2869.95 1309.26 2845.45 1163.15 2894.69 1140.6 2931.63 1097.71 2946.6 1045.69Z" fill="#EBEBEB" fill-rule="evenodd"/><path d="M2627.72 1451.98C2626.8 1451.99 2625.93 1451.63 2625.28 1450.99 2624.38 1450.09 2624.05 1448.76 2624.42 1447.55 2647.82 1365.99 2626.48 1287.79 2604.49 1236.56L2593.32 1210.6 2569.47 1225.76C2469.99 1289.06 2338.46 1263.99 2269.2 1168.55L2259.64 1155.38 2243.9 1159.3C2171.04 1177.44 2097.27 1133.05 2079.13 1060.15 2070.8 1026.67 2075.5 991.279 2092.27 961.135L2100.28 946.625 2089.59 933.971C2022.31 854.331 2032.3 735.203 2111.9 667.89 2136.21 647.328 2165.33 633.255 2196.54 626.981L2215.65 623.129 2215.86 603.668C2216.35 539.102 2269.06 487.158 2333.59 487.647 2365.28 487.887 2395.51 500.994 2417.35 523.963L2431.93 539.23 2449.11 526.783C2561.19 444.53 2718.69 468.754 2800.9 580.888 2825.6 614.577 2841.53 653.885 2847.26 695.27L2849.22 709.024 2862.24 714.181C2931.9 741.77 2966.02 820.632 2938.44 890.325 2934.55 900.166 2929.52 909.517 2923.45 918.188L2916.37 928.332 2920.53 940.023C2948.6 1019.08 2911.63 1106.49 2835.37 1141.38L2818.63 1149.08 2821.69 1167.24C2832 1229.58 2813.34 1297.66 2770.14 1354.05 2734.47 1400.81 2684.93 1435.07 2628.61 1451.95 2628.32 1452 2628.02 1452.01 2627.72 1451.98ZM2594.9 1202.17C2595.23 1202.13 2595.56 1202.13 2595.89 1202.17 2596.85 1202.47 2597.63 1203.18 2598.02 1204.1L2610.78 1233.74C2632.7 1284.73 2653.91 1361.96 2632.67 1443.25 2685.18 1426.17 2731.24 1393.5 2764.74 1349.58 2806.74 1294.57 2825.02 1228.55 2814.92 1168.1L2811.48 1147.47C2811.21 1145.94 2812 1144.41 2813.41 1143.75L2832.52 1134.99C2905.38 1101.57 2940.71 1018.02 2913.93 942.43L2909.19 929.088C2908.82 928.035 2908.99 926.868 2909.64 925.959L2917.71 914.337C2958.5 856.067 2944.35 775.749 2886.11 734.942 2877.87 729.17 2868.98 724.383 2859.63 720.68L2844.72 714.766C2843.57 714.309 2842.76 713.272 2842.58 712.05L2840.35 696.198C2821.88 562.236 2698.37 468.617 2564.48 487.094 2524.14 492.659 2485.84 508.203 2453.03 532.318L2433.54 546.519C2432.16 547.537 2430.23 547.375 2429.04 546.141L2412.37 528.708C2391.57 507.002 2362.83 494.711 2332.78 494.667 2272.42 494.664 2223.35 543.322 2222.8 603.702L2222.56 625.984C2222.59 627.643 2221.44 629.09 2219.81 629.422L2197.99 633.823C2099.53 653.633 2035.77 749.547 2055.57 848.053 2061.6 878.093 2075.13 906.12 2094.88 929.535L2107.08 944.011C2108 945.103 2108.15 946.649 2107.46 947.897L2098.32 964.47C2093.6 972.977 2089.84 981.984 2087.12 991.325 2067.33 1059.91 2106.87 1131.56 2175.42 1151.35 2197.21 1157.64 2220.27 1158.08 2242.29 1152.63L2260.29 1148.16C2261.65 1147.82 2263.08 1148.33 2263.9 1149.46L2274.8 1164.49C2341.86 1257.16 2469.49 1281.51 2565.93 1220.02L2593.18 1202.83C2593.68 1202.46 2594.28 1202.23 2594.9 1202.17Z" fill="#FFFFFF" fill-rule="evenodd"/><path d="M2386.18 880.793 2293.83 866.372 2295.24 857.147C2296.85 844.126 2300.68 831.474 2306.54 819.733 2311.69 810.44 2318.51 802.177 2326.67 795.365 2334.96 788.481 2353.02 776.709 2380.84 760.05 2395.62 751.376 2403.72 742.634 2404.96 733.719 2406.62 726.061 2404.92 718.062 2400.31 711.725 2395.83 705.978 2388.22 702.26 2377.53 700.608 2366.89 698.591 2355.89 701.085 2347.17 707.492 2338.44 713.94 2331.55 726.468 2326.49 745.078L2234 718.747C2242.64 684.626 2259.59 658.708 2284.87 640.994 2310.14 623.279 2345.45 617.956 2390.8 625.023 2426.13 630.507 2453.51 642.302 2472.92 660.406 2499.3 684.913 2509.9 713.756 2504.73 746.936 2502.41 760.921 2496.33 774.011 2487.12 784.798 2477.52 796.408 2459.52 809.603 2433.12 824.38 2414.74 834.82 2402.79 843.62 2397.28 850.779 2391.11 859.694 2387.3 870.016 2386.18 880.793ZM2286.83 890.465 2385.77 905.85 2372.19 993 2273.25 977.615Z" fill="#FFFFFF" fill-rule="evenodd"/><path d="M2621.25 1015.65 2570 974.462 2574.17 969.349C2579.78 962.004 2586.59 955.657 2594.32 950.576 2600.75 946.753 2607.84 944.135 2615.22 942.854 2630.35 941.097 2645.58 940.306 2660.82 940.486 2672.9 940.486 2680.93 938.004 2684.93 933.039 2688.68 928.98 2690.49 923.496 2689.89 918.007 2688.6 911.975 2685.04 906.667 2679.93 903.181 2674.15 898.205 2666.55 895.866 2658.96 896.728 2651.34 897.552 2642.69 902.734 2633.03 912.275L2585.95 863.576C2603.31 845.867 2622.82 836.085 2644.49 834.232 2666.17 832.379 2689.61 841.611 2714.82 861.928 2734.43 877.738 2746.93 894.589 2752.32 912.481 2759.72 936.711 2755.96 958 2741.06 976.35 2734.72 984.08 2726.39 989.942 2716.95 993.304 2706.97 996.942 2691.31 998.612 2669.98 998.315 2655.07 998.315 2644.67 999.276 2638.74 1001.75 2631.86 1004.88 2625.85 1009.65 2621.25 1015.65ZM2557.23 986.44 2612.12 1030.75 2572.9 1079 2518 1034.8Z" fill="#FFFFFF" fill-rule="evenodd"/><path d="M2635.68 717.938 2613.47 687.526 2616.51 685.279C2620.66 682.045 2625.32 679.523 2630.3 677.815 2634.41 676.629 2638.7 676.219 2642.95 676.605 2651.54 677.813 2660.04 679.591 2668.39 681.927 2675.08 683.655 2679.87 683.448 2682.8 681.305 2685.45 679.591 2687.25 676.825 2687.73 673.702 2687.87 670.152 2686.63 666.687 2684.29 664.026 2681.81 660.439 2677.97 658.038 2673.67 657.39 2669.36 656.768 2663.84 658.358 2657.12 662.229L2638.26 628.395C2649.08 621.376 2662.11 618.618 2674.84 620.654 2687.07 622.796 2698.64 631.321 2709.56 646.227 2718.04 657.885 2722.47 669.048 2722.87 679.715 2723.98 692.941 2718.08 705.781 2707.32 713.515 2702.74 716.851 2697.34 718.881 2691.7 719.389 2682.66 719.568 2673.66 718.201 2665.08 715.346 2659.38 713.399 2653.38 712.486 2647.36 712.65 2643.09 713.415 2639.08 715.233 2635.68 717.938ZM2604.65 692.433 2628.44 724.988 2599.79 746 2576 713.48Z" fill="#FFFFFF" fill-rule="evenodd"/><path d="M1781.67 1147C1752.62 1146.95 1724.13 1139.04 1699.19 1124.11 1664.31 1103.46 1639.67 1071.03 1631.29 1035.34 1580.97 1031.82 1541.16 991.271 1538.5 940.812 1531.18 935.724 1524.71 929.509 1519.33 922.396 1492.25 887.837 1495.51 838.397 1526.89 807.703 1508.3 728.574 1557.27 649.333 1636.27 630.713 1658.68 625.429 1682.03 625.497 1704.42 630.912 1721.36 592.146 1766.47 574.48 1805.17 591.452 1816.91 596.599 1827.17 604.616 1835 614.768 1838.77 619.65 1841.94 624.966 1844.45 630.602 1906.56 620.38 1965.17 662.52 1975.38 724.726 1978.28 742.397 1976.98 760.505 1971.6 777.583 2007.95 808.6 2012.32 863.261 1981.36 899.672 1968 915.381 1949.47 925.796 1929.13 929.04 1921.77 956.943 1905.41 981.628 1882.6 999.26 1853.58 1021.83 1816.49 1031.28 1780.23 1025.35 1779.88 1058.78 1787.61 1104.11 1824.9 1136.54 1825.63 1137.19 1825.96 1138.19 1825.76 1139.15 1825.55 1140.12 1824.82 1140.89 1823.87 1141.15 1810.15 1145.08 1795.94 1147.05 1781.67 1147ZM1669.61 632.151C1591.37 632.39 1528.15 696.109 1528.39 774.471 1528.42 785.752 1529.8 796.989 1532.49 807.944 1532.73 808.895 1532.43 809.902 1531.7 810.56 1501.28 839.152 1497.69 886.273 1523.42 919.161 1528.88 926.185 1535.45 932.267 1542.87 937.163 1543.6 937.636 1544.06 938.429 1544.1 939.298 1546.04 988.236 1584.93 1027.61 1633.76 1030.07 1634.98 1030.14 1635.99 1031.01 1636.24 1032.2 1643.83 1067.21 1667.85 1099.02 1702.08 1119.46 1736.76 1140.41 1778.31 1146.77 1817.65 1137.15 1780.78 1102.73 1773.9 1055.71 1774.8 1021.98 1774.85 1020.46 1776.13 1019.27 1777.64 1019.33 1777.76 1019.33 1777.88 1019.34 1777.99 1019.36 1843.75 1031.82 1907.83 990.86 1924.25 925.873 1924.5 924.796 1925.39 923.986 1926.48 923.842 1970.83 917.701 2001.82 876.711 1995.69 832.287 1992.88 811.975 1982.51 793.478 1966.66 780.51 1965.79 779.807 1965.45 778.643 1965.8 777.584 1984.78 720.62 1954.07 659.024 1897.2 640.008 1879.79 634.187 1861.2 632.881 1843.15 636.213 1841.89 636.456 1840.64 635.779 1840.16 634.595 1825.19 598.23 1783.63 580.903 1747.33 595.894 1729.66 603.189 1715.67 617.298 1708.51 635.042 1707.99 636.282 1706.65 636.966 1705.34 636.66 1693.67 633.659 1681.66 632.143 1669.61 632.151Z" fill="#E6E6E6" fill-rule="evenodd"/><path d="M1686.67 859.43 1638.98 870.573 1637.88 865.841C1636.07 859.235 1635.43 852.368 1635.98 845.544 1636.63 840.063 1638.31 834.75 1640.92 829.876 1646.76 820.25 1653.22 811.008 1660.25 802.208 1665.75 795.111 1667.96 789.317 1666.85 784.757 1666.16 780.729 1663.76 777.193 1660.25 775.054 1656.12 773.055 1651.37 772.724 1647 774.129 1641.43 775.246 1636.59 778.613 1633.63 783.42 1630.66 788.254 1629.8 795.625 1631.01 805.602L1581.04 810.882C1578.12 794.482 1581.39 777.589 1590.23 763.432 1599 749.923 1615.11 740.438 1638.57 734.975 1656.8 730.7 1672.42 731.032 1685.43 735.969 1703.06 742.62 1713.9 754.472 1717.96 771.523 1719.64 778.747 1719.28 786.293 1716.92 793.328 1714.62 800.802 1708.48 810.699 1698.52 823.019 1691.61 831.659 1687.55 838.242 1686.33 842.767 1685.03 848.263 1685.15 853.992 1686.67 859.43ZM1640.33 883.43 1691.44 871.499 1701.9 916.206 1650.97 928Z" fill="#EBEBEB" fill-rule="evenodd"/><path d="M1807.01 758.746 1774.04 748.708 1775.04 745.27C1776.3 740.594 1778.35 736.165 1781.1 732.173 1783.45 729.046 1786.37 726.387 1789.7 724.335 1796.68 720.555 1803.9 717.237 1811.31 714.4 1817.16 712.108 1820.6 709.324 1821.63 706.047 1822.66 703.335 1822.45 700.315 1821.08 697.762 1819.27 695.085 1816.5 693.203 1813.34 692.503 1809.56 691.243 1805.42 691.604 1801.91 693.499 1797.45 696.562 1794.11 701.007 1792.42 706.15L1760 691.747C1764.1 680.68 1772.13 671.512 1782.57 665.999 1792.72 660.796 1805.88 660.67 1822.08 665.621 1832.99 668.364 1842.81 674.358 1850.23 682.809 1858.35 691.825 1861.07 704.462 1857.39 716.016 1855.83 721.033 1852.93 725.528 1848.99 729.01 1842.44 734.098 1835.07 738.049 1827.21 740.698 1821.98 742.429 1817.08 745.058 1812.76 748.467 1810.02 751.365 1808.04 754.897 1807.01 758.746ZM1770.26 757.13 1805.56 767.855 1796.1 799 1760.76 788.275Z" fill="#EBEBEB" fill-rule="evenodd"/><path d="M2866 1809C2866 1830.54 2567.82 1848 2200 1848 1832.18 1848 1534 1830.54 1534 1809 1534 1787.46 1832.18 1770 2200 1770 2567.82 1770 2866 1787.46 2866 1809Z" fill="#F5F5F5" fill-rule="evenodd"/><path d="M1882.67 1229 1879.47 1227.65C1881.99 1222.15 1883.69 1216.32 1884.52 1210.33L1888 1210.71C1887.13 1217.03 1885.33 1223.19 1882.67 1229ZM1881.32 1189.38C1874.73 1174.74 1860.98 1164.55 1845 1162.46L1845.56 1159C1862.7 1161.27 1877.43 1172.21 1884.48 1187.92Z" fill="#00B4AF" fill-rule="evenodd"/><path d="M1863.2 1263.11 1829.37 1278.63 1827.86 1275.18C1825.54 1270.49 1824.05 1265.45 1823.43 1260.25 1823.11 1256.02 1823.56 1251.77 1824.77 1247.7 1827.7 1239.61 1831.14 1231.71 1835.06 1224.05 1838.08 1217.91 1838.85 1213.21 1837.36 1209.95 1836.25 1207.03 1833.94 1204.73 1831.02 1203.64 1827.65 1202.78 1824.08 1203.23 1821.03 1204.92 1817.07 1206.61 1813.98 1209.86 1812.49 1213.91 1811 1217.94 1811.46 1223.61 1813.86 1230.95L1777.42 1242.39C1772.86 1230.46 1772.86 1217.26 1777.42 1205.33 1781.99 1193.84 1792.54 1184.33 1809.05 1176.82 1821.96 1170.89 1833.62 1168.85 1844.02 1170.61 1856.98 1172.18 1868.16 1180.5 1873.43 1192.5 1875.74 1197.69 1876.6 1203.41 1875.9 1209.05 1874.24 1217.86 1871.11 1226.33 1866.63 1234.08 1863.62 1239.22 1861.56 1244.86 1860.52 1250.74 1860.38 1255.02 1861.3 1259.27 1863.2 1263.11ZM1832.32 1288.07 1868.49 1271.73 1883 1303.76 1846.83 1320Z" fill="#00B4AF" fill-rule="evenodd"/><path d="M1779.04 1339.86 1761.82 1363.31 1759.61 1361.48C1756.26 1359.15 1753.31 1356.27 1750.9 1352.96 1749.07 1350.2 1747.78 1347.13 1747.08 1343.89 1745.97 1337.26 1745.31 1330.57 1745.12 1323.85 1744.84 1318.51 1743.57 1315.02 1741.33 1313.51 1739.42 1311.89 1736.9 1311.19 1734.44 1311.61 1731.81 1312.3 1729.54 1313.98 1728.1 1316.3 1726.03 1318.95 1725.15 1322.35 1725.66 1325.68 1726.85 1330.09 1729.45 1333.99 1733.06 1336.79L1712.4 1358.55C1704.75 1352.16 1699.71 1343.17 1698.25 1333.3 1696.98 1323.78 1700.59 1313.27 1709.06 1301.75 1714.31 1293.85 1721.83 1287.73 1730.62 1284.19 1740.08 1280.28 1750.9 1281.67 1759.06 1287.85 1762.63 1290.49 1765.39 1294.07 1767.05 1298.19 1769.26 1304.86 1770.33 1311.86 1770.22 1318.89 1770.1 1323.58 1770.83 1328.25 1772.36 1332.68 1773.95 1335.59 1776.25 1338.06 1779.04 1339.86ZM1767.43 1368.69 1785.89 1343.58 1808 1359.89 1789.54 1385Z" fill="#00B4AF" fill-rule="evenodd"/><path d="M2145.55 1797C2139.74 1797.01 2134.41 1793.78 2131.74 1788.64 2117.93 1761.95 2100.43 1730.62 2069.08 1696.71 2065.41 1692.75 2064.1 1687.16 2065.63 1681.99 2077.26 1641.72 2095.56 1586.66 2095.73 1586.11 2098.14 1577.92 2106.75 1573.23 2114.97 1575.63 2123.18 1578.02 2127.89 1586.6 2125.49 1594.79 2125.39 1595.13 2125.27 1595.47 2125.15 1595.81 2124.97 1596.32 2109.2 1643.75 2097.77 1682.3 2122.13 1710.29 2142.81 1741.27 2159.29 1774.47 2163.2 1782.08 2160.18 1791.41 2152.54 1795.3 2150.35 1796.41 2147.94 1797 2145.48 1797Z" fill="#00B4AF" fill-rule="evenodd"/><path d="M2171 1809 2051 1809 2114.6 1773 2167.9 1775.07 2171 1809Z" fill="#263238" fill-rule="evenodd"/><path d="M2232.59 1551.56C2246.7 1596.68 2214 1647.05 2159.57 1664.07 2105.14 1681.08 2049.58 1658.3 2035.47 1613.18 2021.37 1568.07 2054.06 1517.69 2108.49 1500.68 2162.93 1483.66 2218.49 1506.44 2232.59 1551.56Z" fill="#263238" fill-rule="evenodd"/><path d="M1862.37 1526C1853.85 1525.97 1846.97 1519.04 1847 1510.54 1847.02 1504.36 1850.75 1498.8 1856.46 1496.41 1861.89 1494.14 1865.78 1489.26 1866.77 1483.48 1867.4 1476.6 1872.56 1470.98 1879.38 1469.76 1883.21 1468.98 1886.99 1468.01 1890.72 1466.85 1911.61 1460.78 1937.49 1453.13 2018.94 1475.97 2099.28 1431.15 2100.21 1347.07 2100.21 1343.43 2100.21 1334.95 2107.07 1328.06 2115.57 1328L2115.57 1328C2124.04 1328 2130.92 1334.81 2131 1343.26 2131 1347.75 2130.52 1453.3 2027.9 1506.14 2024.41 1507.95 2020.35 1508.35 2016.56 1507.24 1938.9 1484.88 1916.91 1491.26 1899.48 1496.37L1894.74 1497.74C1890.11 1509.99 1880.6 1519.78 1868.49 1524.8 1866.55 1525.61 1864.47 1526.02 1862.37 1526Z" fill="#263238" fill-rule="evenodd"/><path d="M2041.83 1415.97C2012.58 1299.75 1934.65 999.971 2184.37 981.655 2408.41 965.195 2469.87 1263.43 2484.83 1366.52 2492.31 1418.68 2496.38 1471.28 2496.99 1523.97 2497.58 1578.96 2458.95 1626.59 2405.01 1637.37 2282.95 1662.18 2167.46 1665.69 2089.64 1635 2068.65 1626.53 2055.74 1605.26 2057.91 1582.73 2060.91 1549.47 2060.97 1491.95 2041.83 1415.97Z" fill="#00B4AF" fill-rule="evenodd"/><path d="M2484.99 1366.68C2470.92 1269.23 2415.63 998.494 2222.03 981.289 2199.45 978.992 2177.71 990.543 2166.91 1010.57 2158.27 1027.36 2158.54 1047.7 2171.47 1067.83 2214.01 1134.34 2315.78 1363.75 2300.41 1488.77 2293.55 1545.65 2257.84 1591.07 2288.78 1655 2327.89 1651.57 2366.77 1645.82 2405.2 1637.8 2459.03 1627 2497.58 1579.31 2496.99 1524.24 2496.42 1471.52 2492.41 1418.88 2484.99 1366.68Z" fill="#000000" fill-rule="evenodd" fill-opacity="0.101961"/><path d="M2451.62 1526C2450.78 1526 2450.09 1525.33 2450.08 1524.49 2449.49 1471.82 2445.43 1419.26 2437.93 1367.13 2400.78 1110.38 2300.79 980.565 2148.65 991.776 2147.8 991.834 2147.06 991.191 2147 990.338 2147 990.336 2147 990.334 2147 990.331 2146.96 989.482 2147.6 988.753 2148.45 988.68 2302.37 977.332 2403.57 1108.08 2440.82 1366.68 2448.32 1418.95 2452.39 1471.65 2453 1524.45 2453 1525.31 2452.31 1526 2451.45 1526Z" fill="#263238" fill-rule="evenodd"/><path d="M2522.45 1559.75C2536.55 1604.87 2503.86 1655.24 2449.43 1672.26 2395 1689.27 2339.44 1666.49 2325.33 1621.37 2311.23 1576.25 2343.92 1525.88 2398.35 1508.87 2452.78 1491.85 2508.34 1514.63 2522.45 1559.75Z" fill="#263238" fill-rule="evenodd"/><path d="M2458.74 1797C2452.99 1797.01 2447.71 1793.78 2445.07 1788.62 2431.41 1761.87 2414.08 1730.46 2383.02 1696.47 2379.41 1692.49 2378.12 1686.9 2379.6 1681.71 2391.15 1641.34 2409.23 1586.15 2409.43 1585.6 2412.09 1577.5 2420.76 1573.1 2428.79 1575.79 2436.82 1578.47 2441.17 1587.22 2438.51 1595.32 2438.34 1595.84 2422.76 1643.38 2411.45 1682.02 2435.56 1710.07 2456.02 1741.12 2472.31 1774.42 2476.18 1782.05 2473.18 1791.39 2465.62 1795.3 2463.46 1796.41 2461.07 1797 2458.64 1797Z" fill="#00B4AF" fill-rule="evenodd"/><path d="M2426.7 1327C2418.2 1327 2411.31 1320.1 2411.3 1311.57 2411.3 1305.84 2414.46 1300.58 2419.5 1297.91L2419.5 1297.91C2422.45 1296.32 2489.38 1259.63 2508.16 1171.45 2463.61 1152.74 2383.35 1110.48 2365.8 1089.23 2364.07 1087.17 2362.9 1084.71 2362.38 1082.07 2360.35 1069.37 2361.53 1056.37 2365.8 1044.24L2357.71 1028.56C2353.82 1020.96 2356.79 1011.63 2364.36 1007.72 2371.93 1003.81 2381.23 1006.79 2385.13 1014.39L2396.75 1036.95C2399.29 1041.76 2399.11 1047.55 2396.27 1052.19 2393.13 1058.47 2391.8 1065.51 2392.43 1072.51 2412.2 1090.43 2491.81 1132.83 2530.98 1147.38 2537.83 1149.93 2541.94 1156.96 2540.82 1164.2 2523.44 1276.89 2437.53 1323.32 2433.9 1325.25 2431.68 1326.41 2429.2 1327.01 2426.7 1327Z" fill="#263238" fill-rule="evenodd"/><path d="M2377.59 1087C2373.38 1086.98 2369.98 1083.45 2370 1079.11 2370.01 1077.61 2370.43 1076.15 2371.22 1074.89 2371.76 1074.05 2384.31 1054.54 2403.43 1049.27 2407.49 1048.15 2411.65 1050.63 2412.74 1054.8 2413.83 1058.97 2411.42 1063.26 2407.37 1064.38 2394.04 1068.08 2384.04 1083.3 2383.97 1083.44 2382.57 1085.66 2380.17 1087 2377.59 1087Z" fill="#263238" fill-rule="evenodd"/><path d="M2485 1809 2365 1809 2428.6 1773 2481.9 1775.07 2485 1809Z" fill="#263238" fill-rule="evenodd"/><path d="M2309.47 1267.4C2313.07 1308.11 2279.33 1344.37 2234.09 1348.37 2188.86 1352.38 2149.26 1322.62 2145.66 1281.9 2142.05 1241.19 2175.8 1204.93 2221.04 1200.93 2266.27 1196.92 2305.86 1226.68 2309.47 1267.4Z" fill="#FFFFFF" fill-rule="evenodd"/><path d="M2229.18 1275.81C2235.4 1297.64 2230.72 1318.12 2218.73 1321.53 2206.73 1324.95 2191.96 1310.02 2185.74 1288.18 2179.52 1266.35 2184.2 1245.87 2196.2 1242.46 2208.2 1239.04 2222.96 1253.97 2229.18 1275.81Z" fill="#263238" fill-rule="evenodd"/><path d="M2133.74 1289C2185.84 1282.32 2288.99 1252.96 2306 1241.12 2292.61 1202.01 2230.1 1168.55 2174.49 1187.41 2124.08 1204.39 2133.74 1289 2133.74 1289Z" fill="#263238" fill-rule="evenodd"/><path d="M2144 1313.77C2208.38 1301.58 2292.07 1281.11 2316 1268 2314.52 1309.83 2302.26 1352.24 2236.61 1366.59 2182.91 1378.26 2144 1313.77 2144 1313.77Z" fill="#263238" fill-rule="evenodd"/><path d="M2097.84 1272.72C2117.36 1302.22 2114.29 1338.63 2090.98 1354.05 2067.67 1369.47 2032.96 1358.06 2013.44 1328.56 1993.93 1299.07 1997 1262.66 2020.31 1247.24 2043.61 1231.82 2078.33 1243.23 2097.84 1272.72Z" fill="#FFFFFF" fill-rule="evenodd"/><path d="M2056.41 1301.5C2060.24 1319.98 2056.92 1335.4 2048.96 1335.98 2041.01 1336.57 2031.46 1321.98 2027.6 1303.5 2023.74 1285.02 2027.1 1269.64 2035.02 1269.02 2042.94 1268.4 2052.55 1283.02 2056.41 1301.5Z" fill="#263238" fill-rule="evenodd"/><path d="M1993.31 1294.44C2027.9 1298.54 2096.6 1293.96 2108 1287.57 2099.57 1254.44 2058.66 1216.6 2021.48 1221.42 1987.95 1225.75 1993.31 1294.44 1993.31 1294.44Z" fill="#263238" fill-rule="evenodd"/><path d="M1999 1316.22C2042.36 1318.18 2098.88 1317.08 2115 1311 2113.52 1344.03 2104.84 1375.51 2060.55 1374.99 2024.38 1374.58 1999 1316.22 1999 1316.22Z" fill="#263238" fill-rule="evenodd"/><path d="M2248.29 1166C2209 1166.21 2170.57 1154.54 2138.11 1132.52 2131.33 1127.42 2129.99 1117.82 2135.12 1111.07 2140.25 1104.33 2149.9 1103 2156.68 1108.1 2193.02 1131.68 2237.1 1140.38 2279.74 1132.39 2288.09 1130.81 2296.14 1136.27 2297.73 1144.58 2299.31 1152.89 2293.82 1160.9 2285.47 1162.48 2273.21 1164.8 2260.76 1165.98 2248.29 1166Z" fill="#263238" fill-rule="evenodd"/><path d="M1972.45 1140C1963.87 1139.96 1956.96 1132.98 1957 1124.41 1957.01 1122.68 1957.31 1120.96 1957.89 1119.32 1966.07 1096.51 1979.7 1081.72 1998.33 1075.31 2032.09 1063.7 2068.46 1086.27 2070.01 1087.24 2077.16 1091.93 2079.15 1101.52 2074.45 1108.67 2069.89 1115.61 2060.64 1117.71 2053.52 1113.43 2046.61 1109.05 2024.63 1098.92 2008.31 1104.57 1998.92 1107.85 1991.95 1116.08 1987.02 1129.8 1984.79 1135.92 1978.97 1140 1972.45 1140Z" fill="#263238" fill-rule="evenodd"/><path d="M2094.61 1400C2094.17 1400 2093.74 1399.93 2093.33 1399.79 2090.9 1399.09 2089.49 1396.52 2090.17 1394.04 2092.93 1386.39 2098.57 1380.17 2105.84 1376.77 2123.51 1367.49 2150.52 1369.41 2185.96 1382.48 2188.35 1383.36 2189.59 1386.05 2188.73 1388.49 2188.72 1388.51 2188.71 1388.52 2188.71 1388.54 2187.86 1390.97 2185.25 1392.23 2182.87 1391.37 2182.84 1391.36 2182.82 1391.35 2182.8 1391.34 2142.14 1376.35 2120.93 1379.57 2110.62 1384.97 2105.47 1387.19 2101.38 1391.38 2099.21 1396.63 2098.6 1398.69 2096.71 1400.07 2094.61 1400Z" fill="#263238" fill-rule="evenodd"/><path d="M1948.67 1383C1894.97 1387.77 1842.75 1403.11 1795 1428.14 1821.49 1423.13 1916.31 1540.51 1940.67 1631 1985.66 1614.35 2038.1 1602.99 2094 1594.1 2060.13 1500.82 1998.19 1395.12 1948.67 1383Z" fill="#00B4AF" fill-rule="evenodd"/><path d="M1948.67 1383C1894.97 1387.77 1842.75 1403.11 1795 1428.14 1821.49 1423.13 1916.31 1540.51 1940.67 1631 1985.66 1614.35 2038.1 1602.99 2094 1594.1 2060.13 1500.82 1998.19 1395.12 1948.67 1383Z" fill="#FFFFFF" fill-rule="evenodd" fill-opacity="0.6"/><path d="M1949 1382.62C1890.07 1375.95 1794.38 1425.33 1794.38 1425.33 1777.44 1436.14 1782.03 1456.4 1791.28 1465 1800.14 1452.26 1899.04 1419.11 1936.2 1414.66 1917.74 1397.53 1934.92 1384.97 1949 1382.62Z" fill="#00B4AF" fill-rule="evenodd"/><path d="M1949 1382.62C1890.07 1375.95 1794.38 1425.33 1794.38 1425.33 1777.44 1436.14 1782.03 1456.4 1791.28 1465 1800.14 1452.26 1899.04 1419.11 1936.2 1414.66 1917.74 1397.53 1934.92 1384.97 1949 1382.62Z" fill="#FFFFFF" fill-rule="evenodd" fill-opacity="0.2"/><path d="M1861.86 1526C1856.75 1526.02 1851.97 1523.47 1849.12 1519.2 1838.13 1502.19 1844.99 1476.38 1846.48 1471.34 1849.19 1463.36 1857.82 1459.1 1865.75 1461.82 1873.24 1464.4 1877.51 1472.33 1875.56 1480.05 1873.09 1488.59 1872.58 1499.5 1874.54 1502.5 1879.11 1509.56 1877.13 1519.01 1870.11 1523.62 1867.66 1525.21 1864.79 1526.04 1861.86 1526Z" fill="#263238" fill-rule="evenodd"/></g></svg>