<svg width="4401" height="1594" xmlns="http://www.w3.org/2000/svg" xmlns:xlink="http://www.w3.org/1999/xlink" xml:space="preserve" overflow="hidden"><defs><linearGradient x1="759.124" y1="1606.57" x2="734.759" y2="1813.08" gradientUnits="userSpaceOnUse" spreadMethod="reflect" id="fill0"><stop offset="0" stop-color="#05BDDA"/><stop offset="0.01639" stop-color="#05BCD9"/><stop offset="0.03279" stop-color="#06BCD9"/><stop offset="0.04918" stop-color="#07BCD9"/><stop offset="0.06557" stop-color="#07BCD9"/><stop offset="0.08197" stop-color="#08BCD9"/><stop offset="0.09836" stop-color="#09BCD9"/><stop offset="0.11475" stop-color="#09BBD8"/><stop offset="0.13115" stop-color="#0ABBD8"/><stop offset="0.14754" stop-color="#0BBBD8"/><stop offset="0.16393" stop-color="#0BBBD7"/><stop offset="0.18033" stop-color="#0CBAD7"/><stop offset="0.19672" stop-color="#0DBAD7"/><stop offset="0.21312" stop-color="#0DB9D6"/><stop offset="0.22951" stop-color="#0EB9D6"/><stop offset="0.2459" stop-color="#0EB8D5"/><stop offset="0.2623" stop-color="#0FB8D4"/><stop offset="0.27869" stop-color="#0FB7D4"/><stop offset="0.29508" stop-color="#10B7D3"/><stop offset="0.31148" stop-color="#11B6D3"/><stop offset="0.32787" stop-color="#11B5D2"/><stop offset="0.34426" stop-color="#12B5D1"/><stop offset="0.36066" stop-color="#12B4D0"/><stop offset="0.37705" stop-color="#13B3D0"/><stop offset="0.39344" stop-color="#13B2CF"/><stop offset="0.40984" stop-color="#14B1CE"/><stop offset="0.42623" stop-color="#14B1CD"/><stop offset="0.44262" stop-color="#14B0CC"/><stop offset="0.45902" stop-color="#15AFCB"/><stop offset="0.47541" stop-color="#15AECA"/><stop offset="0.4918" stop-color="#16ADC9"/><stop offset="0.5082" stop-color="#16ACC8"/><stop offset="0.52459" stop-color="#17ABC7"/><stop offset="0.54098" stop-color="#17AAC6"/><stop offset="0.55738" stop-color="#17A9C5"/><stop offset="0.57377" stop-color="#18A8C4"/><stop offset="0.59016" stop-color="#18A7C2"/><stop offset="0.60656" stop-color="#18A5C1"/><stop offset="0.62295" stop-color="#19A4C0"/><stop offset="0.63934" stop-color="#19A3BF"/><stop offset="0.65574" stop-color="#19A2BD"/><stop offset="0.67213" stop-color="#1AA0BC"/><stop offset="0.68853" stop-color="#1A9FBB"/><stop offset="0.70492" stop-color="#1A9EB9"/><stop offset="0.72131" stop-color="#1A9DB8"/><stop offset="0.7377" stop-color="#1B9BB6"/><stop offset="0.7541" stop-color="#1B9AB5"/><stop offset="0.77049" stop-color="#1B98B3"/><stop offset="0.78689" stop-color="#1B97B2"/><stop offset="0.80328" stop-color="#1B95B0"/><stop offset="0.81967" stop-color="#1C94AF"/><stop offset="0.83607" stop-color="#1C92AD"/><stop offset="0.85246" stop-color="#1C91AC"/><stop offset="0.86885" stop-color="#1C8FAA"/><stop offset="0.88525" stop-color="#1C8EA8"/><stop offset="0.90164" stop-color="#1C8CA6"/><stop offset="0.91803" stop-color="#1C8AA5"/><stop offset="0.93443" stop-color="#1C89A3"/><stop offset="0.95082" stop-color="#1C87A1"/><stop offset="0.96721" stop-color="#1C859F"/><stop offset="0.98361" stop-color="#1C839D"/><stop offset="1" stop-color="#1D829C"/></linearGradient><linearGradient x1="3662.44" y1="437.821" x2="3662.44" y2="1826.82" gradientUnits="userSpaceOnUse" spreadMethod="reflect" id="fill1"><stop offset="0" stop-color="#05F93F"/><stop offset="0.0099" stop-color="#05F83E"/><stop offset="0.0198" stop-color="#05F83E"/><stop offset="0.0297" stop-color="#05F83E"/><stop offset="0.0396" stop-color="#05F83E"/><stop offset="0.0495" stop-color="#05F83E"/><stop offset="0.05941" stop-color="#05F83E"/><stop offset="0.06931" stop-color="#05F83E"/><stop offset="0.07921" stop-color="#05F83E"/><stop offset="0.08911" stop-color="#05F73E"/><stop offset="0.09901" stop-color="#05F73E"/><stop offset="0.10891" stop-color="#05F73E"/><stop offset="0.11881" stop-color="#06F73E"/><stop offset="0.12871" stop-color="#06F63E"/><stop offset="0.13861" stop-color="#06F63E"/><stop offset="0.14852" stop-color="#06F63D"/><stop offset="0.15842" stop-color="#06F53D"/><stop offset="0.16832" stop-color="#06F53D"/><stop offset="0.17822" stop-color="#06F43D"/><stop offset="0.18812" stop-color="#06F43D"/><stop offset="0.19802" stop-color="#06F43D"/><stop offset="0.20792" stop-color="#06F33D"/><stop offset="0.21782" stop-color="#06F33C"/><stop offset="0.22772" stop-color="#06F23C"/><stop offset="0.23762" stop-color="#06F23C"/><stop offset="0.24753" stop-color="#07F13C"/><stop offset="0.25743" stop-color="#07F03C"/><stop offset="0.26733" stop-color="#07F03B"/><stop offset="0.27723" stop-color="#07EF3B"/><stop offset="0.28713" stop-color="#07EF3B"/><stop offset="0.29703" stop-color="#07EE3B"/><stop offset="0.30693" stop-color="#07ED3B"/><stop offset="0.31683" stop-color="#07ED3A"/><stop offset="0.32673" stop-color="#07EC3A"/><stop offset="0.33663" stop-color="#07EB3A"/><stop offset="0.34653" stop-color="#07EB3A"/><stop offset="0.35644" stop-color="#07EA39"/><stop offset="0.36634" stop-color="#07E939"/><stop offset="0.37624" stop-color="#07E839"/><stop offset="0.38614" stop-color="#07E738"/><stop offset="0.39604" stop-color="#08E738"/><stop offset="0.40594" stop-color="#08E638"/><stop offset="0.41584" stop-color="#08E538"/><stop offset="0.42574" stop-color="#08E437"/><stop offset="0.43564" stop-color="#08E337"/><stop offset="0.44554" stop-color="#08E237"/><stop offset="0.45545" stop-color="#08E136"/><stop offset="0.46535" stop-color="#08E036"/><stop offset="0.47525" stop-color="#08DF36"/><stop offset="0.48515" stop-color="#08DE35"/><stop offset="0.49505" stop-color="#08DD35"/><stop offset="0.50495" stop-color="#08DC35"/><stop offset="0.51485" stop-color="#08DB34"/><stop offset="0.52475" stop-color="#08DA34"/><stop offset="0.53465" stop-color="#08D933"/><stop offset="0.54455" stop-color="#08D833"/><stop offset="0.55445" stop-color="#08D733"/><stop offset="0.56436" stop-color="#08D632"/><stop offset="0.57426" stop-color="#08D432"/><stop offset="0.58416" stop-color="#09D331"/><stop offset="0.59406" stop-color="#09D231"/><stop offset="0.60396" stop-color="#09D131"/><stop offset="0.61386" stop-color="#09D030"/><stop offset="0.62376" stop-color="#09CE30"/><stop offset="0.63366" stop-color="#09CD2F"/><stop offset="0.64356" stop-color="#09CC2F"/><stop offset="0.65346" stop-color="#09CB2E"/><stop offset="0.66337" stop-color="#09C92E"/><stop offset="0.67327" stop-color="#09C82D"/><stop offset="0.68317" stop-color="#09C72D"/><stop offset="0.69307" stop-color="#09C52C"/><stop offset="0.70297" stop-color="#09C42C"/><stop offset="0.71287" stop-color="#09C22B"/><stop offset="0.72277" stop-color="#09C12B"/><stop offset="0.73267" stop-color="#09C02A"/><stop offset="0.74257" stop-color="#09BE2A"/><stop offset="0.75248" stop-color="#09BD29"/><stop offset="0.76238" stop-color="#09BB29"/><stop offset="0.77228" stop-color="#09BA28"/><stop offset="0.78218" stop-color="#09B828"/><stop offset="0.79208" stop-color="#09B727"/><stop offset="0.80198" stop-color="#09B527"/><stop offset="0.81188" stop-color="#09B326"/><stop offset="0.82178" stop-color="#09B226"/><stop offset="0.83168" stop-color="#09B025"/><stop offset="0.84158" stop-color="#09AF24"/><stop offset="0.85149" stop-color="#09AD24"/><stop offset="0.86139" stop-color="#09AB23"/><stop offset="0.87129" stop-color="#09AA23"/><stop offset="0.88119" stop-color="#09A822"/><stop offset="0.89109" stop-color="#09A621"/><stop offset="0.90099" stop-color="#09A521"/><stop offset="0.91089" stop-color="#09A320"/><stop offset="0.92079" stop-color="#09A120"/><stop offset="0.93069" stop-color="#099F1F"/><stop offset="0.94059" stop-color="#099E1E"/><stop offset="0.9505" stop-color="#099C1E"/><stop offset="0.9604" stop-color="#099A1D"/><stop offset="0.9703" stop-color="#09981C"/><stop offset="0.9802" stop-color="#09961C"/><stop offset="0.9901" stop-color="#09941B"/><stop offset="1" stop-color="#0A931B"/></linearGradient><linearGradient x1="-0.0584617" y1="1131.82" x2="2839.94" y2="1131.82" gradientUnits="userSpaceOnUse" spreadMethod="reflect" id="fill2"><stop offset="0" stop-color="#1C839D"/><stop offset="0.01695" stop-color="#1B849E"/><stop offset="0.0339" stop-color="#1B86A0"/><stop offset="0.05085" stop-color="#1B88A2"/><stop offset="0.0678" stop-color="#1B8AA4"/><stop offset="0.08475" stop-color="#1B8BA6"/><stop offset="0.1017" stop-color="#1B8DA7"/><stop offset="0.11864" stop-color="#1B8FA9"/><stop offset="0.13559" stop-color="#1B90AB"/><stop offset="0.15254" stop-color="#1B92AD"/><stop offset="0.16949" stop-color="#1B93AE"/><stop offset="0.18644" stop-color="#1B95B0"/><stop offset="0.20339" stop-color="#1A96B1"/><stop offset="0.22034" stop-color="#1A98B3"/><stop offset="0.23729" stop-color="#1A99B4"/><stop offset="0.25424" stop-color="#1A9BB6"/><stop offset="0.27119" stop-color="#1A9CB7"/><stop offset="0.28814" stop-color="#199DB9"/><stop offset="0.30509" stop-color="#199FBA"/><stop offset="0.32203" stop-color="#19A0BC"/><stop offset="0.33898" stop-color="#18A1BD"/><stop offset="0.35593" stop-color="#18A3BE"/><stop offset="0.37288" stop-color="#18A4BF"/><stop offset="0.38983" stop-color="#18A5C1"/><stop offset="0.40678" stop-color="#17A6C2"/><stop offset="0.42373" stop-color="#17A7C3"/><stop offset="0.44068" stop-color="#17A8C4"/><stop offset="0.45763" stop-color="#16A9C5"/><stop offset="0.47458" stop-color="#16AAC7"/><stop offset="0.49152" stop-color="#15ABC8"/><stop offset="0.50848" stop-color="#15ACC9"/><stop offset="0.52542" stop-color="#15ADCA"/><stop offset="0.54237" stop-color="#14AECB"/><stop offset="0.55932" stop-color="#14AFCC"/><stop offset="0.57627" stop-color="#13B0CD"/><stop offset="0.59322" stop-color="#13B1CD"/><stop offset="0.61017" stop-color="#12B2CE"/><stop offset="0.62712" stop-color="#12B3CF"/><stop offset="0.64407" stop-color="#11B3D0"/><stop offset="0.66102" stop-color="#11B4D1"/><stop offset="0.67797" stop-color="#10B5D1"/><stop offset="0.69491" stop-color="#10B5D2"/><stop offset="0.71186" stop-color="#0FB6D3"/><stop offset="0.72881" stop-color="#0FB7D3"/><stop offset="0.74576" stop-color="#0EB7D4"/><stop offset="0.76271" stop-color="#0EB8D4"/><stop offset="0.77966" stop-color="#0DB8D5"/><stop offset="0.79661" stop-color="#0CB9D5"/><stop offset="0.81356" stop-color="#0CB9D6"/><stop offset="0.83051" stop-color="#0BB9D6"/><stop offset="0.84746" stop-color="#0BBAD7"/><stop offset="0.86441" stop-color="#0ABAD7"/><stop offset="0.88136" stop-color="#09BAD7"/><stop offset="0.8983" stop-color="#09BBD8"/><stop offset="0.91525" stop-color="#08BBD8"/><stop offset="0.9322" stop-color="#07BBD8"/><stop offset="0.94915" stop-color="#07BBD8"/><stop offset="0.9661" stop-color="#06BBD8"/><stop offset="0.98305" stop-color="#05BBD8"/><stop offset="1" stop-color="#05BCD9"/></linearGradient><linearGradient x1="1411.94" y1="535.821" x2="1411.94" y2="1732.82" gradientUnits="userSpaceOnUse" spreadMethod="reflect" id="fill3"><stop offset="0" stop-color="#FFFFF9"/><stop offset="0.5" stop-color="#FFFFF8"/><stop offset="1" stop-color="#FFFFF7"/></linearGradient><linearGradient x1="3658.44" y1="549.821" x2="3658.44" y2="1713.82" gradientUnits="userSpaceOnUse" spreadMethod="reflect" id="fill4"><stop offset="0" stop-color="#FFFFFF"/><stop offset="0.14286" stop-color="#FFFFFE"/><stop offset="0.28571" stop-color="#FFFFFE"/><stop offset="0.42857" stop-color="#FFFFFD"/><stop offset="0.57143" stop-color="#FFFFFC"/><stop offset="0.71429" stop-color="#FFFFFA"/><stop offset="0.85714" stop-color="#FFFFF9"/><stop offset="1" stop-color="#FFFFF7"/></linearGradient><linearGradient x1="480.635" y1="2062.82" x2="317.248" y2="1429.82" gradientUnits="userSpaceOnUse" spreadMethod="reflect" id="fill5"><stop offset="0" stop-color="#05BDDA"/><stop offset="0.01639" stop-color="#05BCD9"/><stop offset="0.03279" stop-color="#06BCD9"/><stop offset="0.04918" stop-color="#07BCD9"/><stop offset="0.06557" stop-color="#07BCD9"/><stop offset="0.08197" stop-color="#08BCD9"/><stop offset="0.09836" stop-color="#09BCD9"/><stop offset="0.11475" stop-color="#09BBD8"/><stop offset="0.13115" stop-color="#0ABBD8"/><stop offset="0.14754" stop-color="#0BBBD8"/><stop offset="0.16393" stop-color="#0BBBD7"/><stop offset="0.18033" stop-color="#0CBAD7"/><stop offset="0.19672" stop-color="#0DBAD7"/><stop offset="0.21312" stop-color="#0DB9D6"/><stop offset="0.22951" stop-color="#0EB9D6"/><stop offset="0.2459" stop-color="#0EB8D5"/><stop offset="0.2623" stop-color="#0FB8D4"/><stop offset="0.27869" stop-color="#0FB7D4"/><stop offset="0.29508" stop-color="#10B7D3"/><stop offset="0.31148" stop-color="#11B6D3"/><stop offset="0.32787" stop-color="#11B5D2"/><stop offset="0.34426" stop-color="#12B5D1"/><stop offset="0.36066" stop-color="#12B4D0"/><stop offset="0.37705" stop-color="#13B3D0"/><stop offset="0.39344" stop-color="#13B2CF"/><stop offset="0.40984" stop-color="#14B1CE"/><stop offset="0.42623" stop-color="#14B1CD"/><stop offset="0.44262" stop-color="#14B0CC"/><stop offset="0.45902" stop-color="#15AFCB"/><stop offset="0.47541" stop-color="#15AECA"/><stop offset="0.4918" stop-color="#16ADC9"/><stop offset="0.5082" stop-color="#16ACC8"/><stop offset="0.52459" stop-color="#17ABC7"/><stop offset="0.54098" stop-color="#17AAC6"/><stop offset="0.55738" stop-color="#17A9C5"/><stop offset="0.57377" stop-color="#18A8C4"/><stop offset="0.59016" stop-color="#18A7C2"/><stop offset="0.60656" stop-color="#18A5C1"/><stop offset="0.62295" stop-color="#19A4C0"/><stop offset="0.63934" stop-color="#19A3BF"/><stop offset="0.65574" stop-color="#19A2BD"/><stop offset="0.67213" stop-color="#1AA0BC"/><stop offset="0.68853" stop-color="#1A9FBB"/><stop offset="0.70492" stop-color="#1A9EB9"/><stop offset="0.72131" stop-color="#1A9DB8"/><stop offset="0.7377" stop-color="#1B9BB6"/><stop offset="0.7541" stop-color="#1B9AB5"/><stop offset="0.77049" stop-color="#1B98B3"/><stop offset="0.78689" stop-color="#1B97B2"/><stop offset="0.80328" stop-color="#1B95B0"/><stop offset="0.81967" stop-color="#1C94AF"/><stop offset="0.83607" stop-color="#1C92AD"/><stop offset="0.85246" stop-color="#1C91AC"/><stop offset="0.86885" stop-color="#1C8FAA"/><stop offset="0.88525" stop-color="#1C8EA8"/><stop offset="0.90164" stop-color="#1C8CA6"/><stop offset="0.91803" stop-color="#1C8AA5"/><stop offset="0.93443" stop-color="#1C89A3"/><stop offset="0.95082" stop-color="#1C87A1"/><stop offset="0.96721" stop-color="#1C859F"/><stop offset="0.98361" stop-color="#1C839D"/><stop offset="1" stop-color="#1D829C"/></linearGradient><linearGradient x1="3372.18" y1="1831.22" x2="3372.18" y2="2029.22" gradientUnits="userSpaceOnUse" spreadMethod="reflect" id="fill6"><stop offset="0" stop-color="#7E7E7E"/><stop offset="0.0147059" stop-color="#7D7D7D"/><stop offset="0.0294118" stop-color="#7D7D7D"/><stop offset="0.0441176" stop-color="#7D7D7D"/><stop offset="0.0588235" stop-color="#7D7D7D"/><stop offset="0.0735294" stop-color="#7D7D7D"/><stop offset="0.0882353" stop-color="#7D7D7D"/><stop offset="0.102941" stop-color="#7D7D7D"/><stop offset="0.117647" stop-color="#7C7C7C"/><stop offset="0.132353" stop-color="#7C7C7C"/><stop offset="0.147059" stop-color="#7C7C7C"/><stop offset="0.161765" stop-color="#7B7B7B"/><stop offset="0.176471" stop-color="#7B7B7B"/><stop offset="0.191176" stop-color="#7B7A7A"/><stop offset="0.205882" stop-color="#7A7A7A"/><stop offset="0.220588" stop-color="#7A7979"/><stop offset="0.235294" stop-color="#797979"/><stop offset="0.25" stop-color="#797878"/><stop offset="0.264706" stop-color="#787878"/><stop offset="0.279412" stop-color="#777777"/><stop offset="0.294118" stop-color="#777777"/><stop offset="0.308824" stop-color="#767676"/><stop offset="0.323529" stop-color="#767575"/><stop offset="0.338235" stop-color="#757474"/><stop offset="0.352941" stop-color="#747474"/><stop offset="0.367647" stop-color="#737373"/><stop offset="0.382353" stop-color="#737272"/><stop offset="0.397059" stop-color="#727171"/><stop offset="0.411765" stop-color="#717070"/><stop offset="0.426471" stop-color="#707070"/><stop offset="0.441176" stop-color="#6F6F6F"/><stop offset="0.455882" stop-color="#6E6E6E"/><stop offset="0.470588" stop-color="#6D6D6D"/><stop offset="0.485294" stop-color="#6C6C6C"/><stop offset="0.5" stop-color="#6C6B6B"/><stop offset="0.514706" stop-color="#6B6A6A"/><stop offset="0.529412" stop-color="#696969"/><stop offset="0.544118" stop-color="#686767"/><stop offset="0.558824" stop-color="#676666"/><stop offset="0.573529" stop-color="#666565"/><stop offset="0.588235" stop-color="#656464"/><stop offset="0.602941" stop-color="#646363"/><stop offset="0.617647" stop-color="#636262"/><stop offset="0.632353" stop-color="#626060"/><stop offset="0.647059" stop-color="#605F5F"/><stop offset="0.661765" stop-color="#5F5E5E"/><stop offset="0.676471" stop-color="#5E5C5C"/><stop offset="0.691176" stop-color="#5C5B5B"/><stop offset="0.705882" stop-color="#5B5A5A"/><stop offset="0.720588" stop-color="#5A5858"/><stop offset="0.735294" stop-color="#585757"/><stop offset="0.75" stop-color="#575555"/><stop offset="0.764706" stop-color="#565454"/><stop offset="0.779412" stop-color="#545252"/><stop offset="0.794118" stop-color="#535151"/><stop offset="0.808824" stop-color="#514F4F"/><stop offset="0.823529" stop-color="#504E4E"/><stop offset="0.838235" stop-color="#4E4C4C"/><stop offset="0.852941" stop-color="#4D4A4A"/><stop offset="0.867647" stop-color="#4B4949"/><stop offset="0.882353" stop-color="#494747"/><stop offset="0.897059" stop-color="#484545"/><stop offset="0.911765" stop-color="#464343"/><stop offset="0.926471" stop-color="#444242"/><stop offset="0.941176" stop-color="#434040"/><stop offset="0.955882" stop-color="#413E3E"/><stop offset="0.970588" stop-color="#3F3C3C"/><stop offset="0.985294" stop-color="#3D3A3A"/><stop offset="1" stop-color="#3C3939"/></linearGradient><linearGradient x1="3372.18" y1="1831.22" x2="3372.18" y2="2029.22" gradientUnits="userSpaceOnUse" spreadMethod="reflect" id="fill7"><stop offset="0" stop-color="#FF9900"/><stop offset="0.02" stop-color="#FF9800"/><stop offset="0.04" stop-color="#FF9800"/><stop offset="0.06" stop-color="#FF9800"/><stop offset="0.08" stop-color="#FF9800"/><stop offset="0.1" stop-color="#FF9800"/><stop offset="0.12" stop-color="#FF9800"/><stop offset="0.14" stop-color="#FF9700"/><stop offset="0.16" stop-color="#FF9700"/><stop offset="0.18" stop-color="#FF9600"/><stop offset="0.2" stop-color="#FF9600"/><stop offset="0.22" stop-color="#FF9600"/><stop offset="0.24" stop-color="#FF9500"/><stop offset="0.26" stop-color="#FF9400"/><stop offset="0.28" stop-color="#FF9400"/><stop offset="0.3" stop-color="#FF9300"/><stop offset="0.32" stop-color="#FF9200"/><stop offset="0.34" stop-color="#FF9200"/><stop offset="0.36" stop-color="#FF9100"/><stop offset="0.38" stop-color="#FF9000"/><stop offset="0.4" stop-color="#FF8F00"/><stop offset="0.42" stop-color="#FF8E00"/><stop offset="0.44" stop-color="#FF8E00"/><stop offset="0.46" stop-color="#FF8D00"/><stop offset="0.48" stop-color="#FF8C00"/><stop offset="0.5" stop-color="#FF8B00"/><stop offset="0.52" stop-color="#FF8A00"/><stop offset="0.54" stop-color="#FF8800"/><stop offset="0.56" stop-color="#FF8700"/><stop offset="0.58" stop-color="#FF8600"/><stop offset="0.6" stop-color="#FF8500"/><stop offset="0.62" stop-color="#FF8400"/><stop offset="0.64" stop-color="#FF8200"/><stop offset="0.66" stop-color="#FF8100"/><stop offset="0.68" stop-color="#FF8000"/><stop offset="0.7" stop-color="#FF7E00"/><stop offset="0.72" stop-color="#FF7D00"/><stop offset="0.74" stop-color="#FF7C00"/><stop offset="0.76" stop-color="#FF7A00"/><stop offset="0.78" stop-color="#FF7800"/><stop offset="0.8" stop-color="#FF7700"/><stop offset="0.82" stop-color="#FF7500"/><stop offset="0.84" stop-color="#FF7400"/><stop offset="0.86" stop-color="#FF7200"/><stop offset="0.88" stop-color="#FF7000"/><stop offset="0.9" stop-color="#FF6F00"/><stop offset="0.92" stop-color="#FF6D00"/><stop offset="0.94" stop-color="#FF6B00"/><stop offset="0.96" stop-color="#FF6900"/><stop offset="0.98" stop-color="#FF6700"/><stop offset="1" stop-color="#FF6600"/></linearGradient><linearGradient x1="3372.18" y1="1831.22" x2="3372.18" y2="2029.22" gradientUnits="userSpaceOnUse" spreadMethod="reflect" id="fill8"><stop offset="0" stop-color="#FF9900"/><stop offset="0.02" stop-color="#FF9800"/><stop offset="0.04" stop-color="#FF9800"/><stop offset="0.06" stop-color="#FF9800"/><stop offset="0.08" stop-color="#FF9800"/><stop offset="0.1" stop-color="#FF9800"/><stop offset="0.12" stop-color="#FF9800"/><stop offset="0.14" stop-color="#FF9700"/><stop offset="0.16" stop-color="#FF9700"/><stop offset="0.18" stop-color="#FF9600"/><stop offset="0.2" stop-color="#FF9600"/><stop offset="0.22" stop-color="#FF9600"/><stop offset="0.24" stop-color="#FF9500"/><stop offset="0.26" stop-color="#FF9400"/><stop offset="0.28" stop-color="#FF9400"/><stop offset="0.3" stop-color="#FF9300"/><stop offset="0.32" stop-color="#FF9200"/><stop offset="0.34" stop-color="#FF9200"/><stop offset="0.36" stop-color="#FF9100"/><stop offset="0.38" stop-color="#FF9000"/><stop offset="0.4" stop-color="#FF8F00"/><stop offset="0.42" stop-color="#FF8E00"/><stop offset="0.44" stop-color="#FF8E00"/><stop offset="0.46" stop-color="#FF8D00"/><stop offset="0.48" stop-color="#FF8C00"/><stop offset="0.5" stop-color="#FF8B00"/><stop offset="0.52" stop-color="#FF8A00"/><stop offset="0.54" stop-color="#FF8800"/><stop offset="0.56" stop-color="#FF8700"/><stop offset="0.58" stop-color="#FF8600"/><stop offset="0.6" stop-color="#FF8500"/><stop offset="0.62" stop-color="#FF8400"/><stop offset="0.64" stop-color="#FF8200"/><stop offset="0.66" stop-color="#FF8100"/><stop offset="0.68" stop-color="#FF8000"/><stop offset="0.7" stop-color="#FF7E00"/><stop offset="0.72" stop-color="#FF7D00"/><stop offset="0.74" stop-color="#FF7C00"/><stop offset="0.76" stop-color="#FF7A00"/><stop offset="0.78" stop-color="#FF7800"/><stop offset="0.8" stop-color="#FF7700"/><stop offset="0.82" stop-color="#FF7500"/><stop offset="0.84" stop-color="#FF7400"/><stop offset="0.86" stop-color="#FF7200"/><stop offset="0.88" stop-color="#FF7000"/><stop offset="0.9" stop-color="#FF6F00"/><stop offset="0.92" stop-color="#FF6D00"/><stop offset="0.94" stop-color="#FF6B00"/><stop offset="0.96" stop-color="#FF6900"/><stop offset="0.98" stop-color="#FF6700"/><stop offset="1" stop-color="#FF6600"/></linearGradient><linearGradient x1="3372.18" y1="1831.22" x2="3372.18" y2="2029.22" gradientUnits="userSpaceOnUse" spreadMethod="reflect" id="fill9"><stop offset="0" stop-color="#7E7E7E"/><stop offset="0.0147059" stop-color="#7D7D7D"/><stop offset="0.0294118" stop-color="#7D7D7D"/><stop offset="0.0441176" stop-color="#7D7D7D"/><stop offset="0.0588235" stop-color="#7D7D7D"/><stop offset="0.0735294" stop-color="#7D7D7D"/><stop offset="0.0882353" stop-color="#7D7D7D"/><stop offset="0.102941" stop-color="#7D7D7D"/><stop offset="0.117647" stop-color="#7C7C7C"/><stop offset="0.132353" stop-color="#7C7C7C"/><stop offset="0.147059" stop-color="#7C7C7C"/><stop offset="0.161765" stop-color="#7B7B7B"/><stop offset="0.176471" stop-color="#7B7B7B"/><stop offset="0.191176" stop-color="#7B7A7A"/><stop offset="0.205882" stop-color="#7A7A7A"/><stop offset="0.220588" stop-color="#7A7979"/><stop offset="0.235294" stop-color="#797979"/><stop offset="0.25" stop-color="#797878"/><stop offset="0.264706" stop-color="#787878"/><stop offset="0.279412" stop-color="#777777"/><stop offset="0.294118" stop-color="#777777"/><stop offset="0.308824" stop-color="#767676"/><stop offset="0.323529" stop-color="#767575"/><stop offset="0.338235" stop-color="#757474"/><stop offset="0.352941" stop-color="#747474"/><stop offset="0.367647" stop-color="#737373"/><stop offset="0.382353" stop-color="#737272"/><stop offset="0.397059" stop-color="#727171"/><stop offset="0.411765" stop-color="#717070"/><stop offset="0.426471" stop-color="#707070"/><stop offset="0.441176" stop-color="#6F6F6F"/><stop offset="0.455882" stop-color="#6E6E6E"/><stop offset="0.470588" stop-color="#6D6D6D"/><stop offset="0.485294" stop-color="#6C6C6C"/><stop offset="0.5" stop-color="#6C6B6B"/><stop offset="0.514706" stop-color="#6B6A6A"/><stop offset="0.529412" stop-color="#696969"/><stop offset="0.544118" stop-color="#686767"/><stop offset="0.558824" stop-color="#676666"/><stop offset="0.573529" stop-color="#666565"/><stop offset="0.588235" stop-color="#656464"/><stop offset="0.602941" stop-color="#646363"/><stop offset="0.617647" stop-color="#636262"/><stop offset="0.632353" stop-color="#626060"/><stop offset="0.647059" stop-color="#605F5F"/><stop offset="0.661765" stop-color="#5F5E5E"/><stop offset="0.676471" stop-color="#5E5C5C"/><stop offset="0.691176" stop-color="#5C5B5B"/><stop offset="0.705882" stop-color="#5B5A5A"/><stop offset="0.720588" stop-color="#5A5858"/><stop offset="0.735294" stop-color="#585757"/><stop offset="0.75" stop-color="#575555"/><stop offset="0.764706" stop-color="#565454"/><stop offset="0.779412" stop-color="#545252"/><stop offset="0.794118" stop-color="#535151"/><stop offset="0.808824" stop-color="#514F4F"/><stop offset="0.823529" stop-color="#504E4E"/><stop offset="0.838235" stop-color="#4E4C4C"/><stop offset="0.852941" stop-color="#4D4A4A"/><stop offset="0.867647" stop-color="#4B4949"/><stop offset="0.882353" stop-color="#494747"/><stop offset="0.897059" stop-color="#484545"/><stop offset="0.911765" stop-color="#464343"/><stop offset="0.926471" stop-color="#444242"/><stop offset="0.941176" stop-color="#434040"/><stop offset="0.955882" stop-color="#413E3E"/><stop offset="0.970588" stop-color="#3F3C3C"/><stop offset="0.985294" stop-color="#3D3A3A"/><stop offset="1" stop-color="#3C3939"/></linearGradient></defs><g transform="translate(1 -437)"><path d="M876.317 1798.82 621.168 1634.79 621.168 1693.63 667.862 1693.63 667.862 1701.7 613.941 1701.7 613.941 1620.82 879.941 1791.84 876.317 1798.82Z" fill="url(#fill0)" fill-rule="evenodd"/><path d="M2924.94 557.109C2924.94 491.228 2978.37 437.821 3044.29 437.821L4280.59 437.821C4346.51 437.821 4399.94 491.228 4399.94 557.109L4399.94 1707.53C4399.94 1773.42 4346.51 1826.82 4280.59 1826.82L3044.29 1826.82C2978.37 1826.82 2924.94 1773.42 2924.94 1707.53Z" fill="url(#fill1)" fill-rule="evenodd"/><path d="M694.267 437.821 2653.01 437.821 2653.01 437.821 2716.63 437.821C2784.73 437.821 2839.94 493.004 2839.94 561.076L2839.94 1702.56C2839.94 1770.64 2784.73 1825.82 2716.63 1825.82L1507.41 1825.82 1507.41 1825.82 694.267 1825.82 629.588 1822.56 629.588 1812.06 591.665 1809.05C589.421 1801.72 586.28 1794.65 582.304 1787.98L606.74 1761.12 570.958 1728.02 541.921 1750.62C534.711 1746.94 527.072 1744.04 519.151 1741.96L515.897 1706.96 465.359 1706.96 462.027 1742.11C454.137 1744.2 446.524 1747.11 439.337 1750.78L410.299 1728.16 384.45 1752.23 363.311 1742.06 337.128 1725.51 341.038 1716.79 394.353 1712.02 394.353 1645.96 341.038 1641.71C337.927 1631.47 333.505 1621.61 327.867 1612.35L362.3 1574.56 312.001 1528.53 271.141 1560.31C261.103 1555.14 250.454 1551.06 239.406 1548.13L234.804 1498.89 163.401 1498.89 158.799 1548.13 144.075 1553.78 100.461 1491.69C36.6736 1386.76-0.0584617 1263.57-0.0584617 1131.82-0.0584617 748.535 310.802 437.821 694.267 437.821Z" fill="url(#fill2)" fill-rule="evenodd"/><path d="M1677.91 1145.38C1634.76 1145.38 1599.25 1162.31 1571.4 1196.18 1545.18 1227.86 1532.07 1265.55 1532.07 1309.24 1532.07 1353.48 1545.18 1391.44 1571.4 1423.12 1599.25 1456.99 1634.76 1473.92 1677.91 1473.92 1720.52 1473.92 1755.75 1456.99 1783.61 1423.12 1809.29 1391.44 1822.12 1353.48 1822.12 1309.24 1822.12 1266.09 1808.73 1228 1781.97 1194.95 1755.2 1161.9 1720.52 1145.38 1677.91 1145.38ZM1676.28 892.222C1799.73 892.222 1899.68 930.86 1976.16 1008.14 2052.64 1085.44 2090.86 1185.81 2090.86 1309.24 2090.86 1433.78 2052.78 1534.82 1976.57 1612.38 1900.37 1689.95 1800.26 1728.73 1676.28 1728.73 1556.1 1728.73 1457.23 1690.5 1379.67 1614.03 1302.1 1537.56 1263.31 1439.24 1263.31 1319.08 1263.31 1192.36 1300.47 1089.53 1374.75 1010.61 1449.04 931.676 1549.55 892.222 1676.28 892.222ZM2239.96 649.704C2254.71 649.704 2275.74 652.981 2303.05 659.536 2334.19 666.637 2355.76 670.733 2367.77 671.824 2395.63 675.649 2437.71 680.837 2493.96 687.392 2507.62 688.484 2514.44 693.127 2514.44 701.32 2514.44 723.168 2512.67 756.213 2509.11 800.455 2505.57 844.704 2503.79 878.02 2503.79 900.413 2503.79 927.172 2511.71 940.557 2527.55 940.557 2546.66 940.557 2575.62 939.74 2614.39 938.093 2653.18 936.461 2682.42 935.644 2702.08 935.644 2714.09 935.644 2720.1 939.74 2720.1 947.932 2720.1 960.488 2718.73 979.334 2716 1004.45 2713.27 1029.58 2711.91 1048.43 2711.91 1061 2711.91 1074.1 2712.19 1093.22 2712.71 1118.34 2713.27 1143.46 2713.55 1162.59 2713.55 1175.69 2713.55 1187.17 2705.62 1192.9 2689.78 1192.9 2678.85 1192.9 2660.55 1192.49 2634.89 1191.67 2609.22 1190.86 2590.92 1190.45 2579.99 1190.45L2518.55 1190.45C2510.35 1190.45 2506.25 1202.45 2506.25 1226.5 2506.25 1239.6 2506.25 1259 2506.25 1284.66 2506.79 1310.87 2507.07 1330.27 2507.07 1342.84 2507.07 1388.71 2512.26 1420.39 2522.64 1437.88 2537.39 1461.35 2566.32 1473.11 2609.48 1473.11 2623.14 1473.11 2642.66 1469.97 2668.07 1463.67 2693.46 1457.4 2711.35 1454.26 2721.74 1454.26 2733.21 1454.26 2738.94 1460.27 2738.94 1472.29 2738.94 1488.67 2736.9 1513.52 2732.8 1546.85 2728.7 1580.16 2726.65 1604.59 2726.65 1620.16 2726.65 1635.73 2725.01 1645.7 2721.74 1650.08 2718.46 1654.44 2709.45 1660.73 2694.7 1668.92 2624.24 1707.69 2546.13 1727.09 2460.37 1727.09 2302.5 1727.09 2223.57 1666.73 2223.57 1546.02 2223.57 1509.97 2224.94 1455.76 2227.67 1383.39 2230.41 1311.01 2231.77 1256.82 2231.77 1220.75 2231.77 1196.73 2217.84 1184.7 2189.98 1184.7 2187.8 1184.7 2184.25 1184.7 2179.32 1184.7 2174.41 1185.26 2170.86 1185.53 2168.68 1185.53 2147.91 1185.53 2137.55 1178.16 2137.55 1163.41 2137.55 1154.67 2138.22 1141.28 2139.59 1123.27 2140.95 1105.23 2141.64 1091.85 2141.64 1083.11 2141.64 1071.64 2140.95 1054.17 2139.59 1030.68 2138.22 1007.18 2137.55 989.72 2137.55 978.25 2137.55 967.314 2155.01 961.317 2189.98 960.219 2209.64 959.671 2220.3 954.209 2221.93 943.836 2225.21 923.075 2226.3 890.308 2225.21 845.521 2223.03 775.057 2221.93 741.466 2221.93 744.743 2221.93 681.383 2227.94 649.704 2239.96 649.704ZM657.67 535.821C740.698 535.821 818.808 551.661 892.004 583.34 971.213 618.297 1033.48 667.456 1078.81 730.815 1088.11 743.924 1092.75 753.209 1092.75 758.671 1092.75 776.15 1068.29 815.339 1019.41 876.247 970.522 937.137 938.982 967.594 924.784 967.594 921.501 967.594 908.933 956.392 887.088 933.997 860.323 907.24 833.011 886.48 805.153 871.729 763.638 849.336 717.755 838.146 667.501 838.146 585.566 838.146 520.564 868.731 472.495 929.902 427.704 986.158 405.308 1056.35 405.308 1140.46 405.308 1229.5 428.522 1299.96 474.952 1351.84 523.022 1405.38 591.029 1432.14 678.972 1432.14 734.688 1432.14 796.959 1418.21 865.785 1390.35 864.146 1372.33 859.231 1326.45 851.037 1252.71 843.935 1195.91 840.385 1150.03 840.385 1115.06 840.385 1104.69 843.935 1098.41 851.037 1096.23 853.768 1095.13 858.138 1094.58 864.146 1094.58 879.987 1094.58 903.885 1096.09 935.841 1099.09 967.79 1102.1 991.965 1103.6 1008.35 1103.6 1025.83 1103.6 1052.05 1102.36 1087.01 1099.91 1121.97 1097.45 1148.19 1096.23 1165.67 1096.23 1179.32 1096.23 1186.16 1105.23 1186.16 1123.27 1186.16 1149.47 1184.65 1189.09 1181.65 1242.06 1178.64 1295.04 1177.14 1334.64 1177.14 1360.85 1177.14 1431.31 1182.32 1536.73 1192.71 1677.12L1193.53 1686.12C1194.61 1700.87 1186.97 1708.24 1170.59 1708.24 1160.21 1708.24 1130.3 1702.23 1080.86 1690.22 1031.43 1678.19 1000.98 1670 989.514 1665.64 875.344 1710.42 765.823 1732.82 660.946 1732.82 492.159 1732.82 353.689 1676.56 245.533 1564.04 138.473 1453.16 84.9414 1313.07 84.9414 1143.74 84.9414 970.594 136.833 826.946 240.618 712.791 347.681 594.811 486.698 535.821 657.67 535.821Z" fill="url(#fill3)" fill-rule="evenodd"/><path d="M3134.94 1673.67 3135.01 1674.6 3135.01 1674.65C3134.95 1674.82 3134.94 1674.51 3134.94 1673.67ZM3683.21 636.65C3697.96 636.65 3718.98 639.926 3746.27 646.479 3777.39 653.578 3798.97 657.674 3810.98 658.766 3838.82 662.589 3880.86 667.776 3937.08 674.33 3950.74 675.422 3957.56 680.065 3957.56 688.255 3957.56 710.099 3955.79 743.136 3952.24 787.371 3948.69 831.61 3946.91 864.92 3946.91 887.308 3946.91 914.061 3954.83 927.443 3970.65 927.443 3989.78 927.443 4018.71 926.627 4057.47 924.982 4096.24 923.348 4125.45 922.532 4145.09 922.532 4157.12 922.532 4163.11 926.627 4163.11 934.817 4163.11 947.371 4161.74 966.213 4159.02 991.331 4156.29 1016.45 4154.91 1035.3 4154.91 1047.86 4154.91 1060.97 4155.19 1080.08 4155.75 1105.19 4156.29 1130.31 4156.57 1149.43 4156.57 1162.54 4156.57 1174.01 4148.64 1179.73 4132.82 1179.73 4121.9 1179.73 4103.61 1179.32 4077.94 1178.51 4052.29 1177.69 4033.99 1177.28 4023.08 1177.28L3961.65 1177.28C3953.47 1177.28 3949.37 1189.29 3949.37 1213.32 3949.37 1226.42 3949.37 1245.81 3949.37 1271.48 3949.92 1297.69 3950.19 1317.08 3950.19 1329.65 3950.19 1375.51 3955.38 1407.19 3965.75 1424.67 3980.49 1448.13 4009.44 1459.89 4052.56 1459.89 4066.2 1459.89 4085.73 1456.75 4111.1 1450.46 4136.5 1444.18 4154.36 1441.05 4164.75 1441.05 4176.22 1441.05 4181.94 1447.05 4181.94 1459.07 4181.94 1475.45 4179.9 1500.28 4175.81 1533.61 4171.71 1566.92 4169.66 1591.35 4169.66 1606.91 4169.66 1622.48 4168.03 1632.44 4164.75 1636.82 4161.48 1641.18 4152.46 1647.47 4137.72 1655.66 4067.3 1694.43 3989.23 1713.82 3903.5 1713.82 3745.72 1713.82 3666.84 1653.48 3666.84 1532.79 3666.84 1496.74 3668.21 1442.55 3670.94 1370.19 3673.66 1297.83 3675.03 1243.63 3675.03 1207.58 3675.03 1183.56 3661.1 1171.55 3633.26 1171.55 3631.08 1171.55 3627.53 1171.55 3622.61 1171.55 3617.7 1172.1 3614.15 1172.36 3611.97 1172.36 3591.22 1172.36 3580.86 1165 3580.86 1150.25 3580.86 1141.52 3581.53 1128.13 3582.9 1110.12 3584.26 1092.1 3584.95 1078.71 3584.95 1069.97 3584.95 1058.5 3584.26 1041.03 3582.9 1017.55 3581.53 994.062 3580.86 976.598 3580.86 965.129 3580.86 954.196 3598.33 948.2 3633.26 947.103 3652.92 946.555 3663.57 941.094 3665.2 930.722 3668.47 909.966 3669.57 877.205 3668.47 832.427 3666.29 761.979 3665.2 728.393 3665.2 731.669 3665.2 668.322 3671.2 636.65 3683.21 636.65ZM3164.42 549.821C3181.34 549.821 3206.86 550.639 3240.99 552.279 3275.11 553.916 3300.63 554.736 3317.55 554.736 3334.48 554.736 3359.46 553.916 3392.48 552.279 3425.52 550.639 3450.49 549.821 3467.41 549.821 3483.26 549.821 3491.18 555.827 3491.18 567.841 3491.18 626.274 3488.03 713.921 3481.76 830.781 3475.48 947.652 3472.35 1035.3 3472.35 1093.73 3472.35 1158.16 3473.98 1255.1 3477.25 1384.53 3480.53 1513.95 3482.16 1610.89 3482.16 1675.32 3482.16 1686.24 3479.72 1693.07 3474.79 1695.8 3473.71 1696.34 3466.6 1697.43 3453.5 1699.07 3418.02 1703.43 3370.52 1705.63 3311.01 1705.63 3231.3 1705.63 3180.52 1703.43 3158.69 1699.07 3144.83 1696.2 3137.04 1689.36 3135.31 1678.56L3135.01 1674.6 3135.06 1674.3C3135.59 1669.52 3138.01 1621.25 3142.3 1529.51 3152.14 1308.34 3157.05 1163.08 3157.05 1093.73 3157.05 1035.3 3155.14 947.652 3151.32 830.781 3147.5 713.921 3145.58 626.274 3145.58 567.841 3145.58 555.827 3151.87 549.821 3164.42 549.821Z" fill="url(#fill4)" fill-rule="evenodd"/><path d="M1662.06 1455.82C1666.55 1432.72 1672.7 1409.97 1680.46 1387.74 1682.03 1383.26 1683.81 1378.75 1685.74 1373.93 1690.32 1362.32 1699.71 1338.58 1696.16 1331.51 1695.45 1329.98 1693.95 1328.95 1692.26 1328.82 1691.89 1328.81 1691.55 1328.94 1691.29 1329.19 1680.86 1337.66 1674.15 1361.12 1669.27 1378.24L1667.64 1384.02C1661.17 1407.06 1656.59 1430.56 1653.94 1454.33" stroke="#1C839D" stroke-width="4.1084" stroke-linecap="round" stroke-linejoin="round" stroke-miterlimit="10" fill="none" fill-rule="evenodd"/><path d="M1677.68 1456.82C1681.95 1434.95 1687.71 1413.41 1694.94 1392.35 1696.39 1388.05 1698.24 1383.53 1699.98 1378.79 1707.21 1360.2 1716.18 1337.16 1709.71 1323.98 1706.44 1317.27 1699.75 1312.97 1692.36 1312.82 1688.53 1312.79 1684.82 1314.12 1681.87 1316.59 1667.91 1328.11 1660.85 1353.32 1655.18 1373.55L1653.57 1379.33C1647.18 1402.3 1642.63 1425.74 1639.94 1449.44" stroke="#1C839D" stroke-width="4.1084" stroke-linecap="round" stroke-linejoin="round" stroke-miterlimit="10" fill="none" fill-rule="evenodd"/><path d="M1692.75 1455.82C1696.72 1435.99 1701.93 1416.46 1708.35 1397.34 1716.1 1374.49 1733.55 1340.14 1722.22 1316.58 1712.94 1297.3 1688.64 1290.14 1672.06 1304.13 1653.1 1320.09 1645.59 1352.08 1639.2 1375 1633.18 1397.06 1628.75 1419.55 1625.94 1442.29" stroke="#1C839D" stroke-width="4.1084" stroke-linecap="round" stroke-linejoin="round" stroke-miterlimit="10" fill="none" fill-rule="evenodd"/><path d="M1708.91 1450.82C1712.48 1434.39 1716.97 1418.18 1722.4 1402.28 1723.67 1398.5 1725.31 1394.27 1727.04 1389.75 1736.34 1365.53 1747.92 1335.35 1735.59 1309.95 1727.28 1292.87 1710.3 1282 1691.66 1281.82 1680.99 1281.79 1670.65 1285.57 1662.4 1292.5 1641.27 1310.16 1632.95 1340.61 1626.05 1365.03L1624.48 1370.7C1618.96 1390.58 1614.77 1410.82 1611.94 1431.29" stroke="#1C839D" stroke-width="4.1084" stroke-linecap="round" stroke-linejoin="round" stroke-miterlimit="10" fill="none" fill-rule="evenodd"/><path d="M1726.4 1441.82C1729.45 1429.59 1732.79 1418.27 1736.56 1407.24 1737.8 1403.67 1739.34 1399.63 1740.99 1395.38 1750.82 1369.73 1764.34 1334.71 1749.04 1303.38 1738.21 1281.15 1716.05 1267.02 1691.7 1266.82 1677.57 1266.77 1663.87 1271.76 1652.98 1280.92 1628.14 1301.57 1619 1334.38 1611.62 1360.9L1610.05 1366.52C1605.43 1383.08 1601.72 1399.89 1598.94 1416.87" stroke="#1C839D" stroke-width="4.1084" stroke-linecap="round" stroke-linejoin="round" stroke-miterlimit="10" fill="none" fill-rule="evenodd"/><path d="M1745.94 1427.82C1749.13 1403.28 1767.91 1374.18 1769.75 1340.15 1771.43 1308.97 1761.7 1288.99 1754.79 1278.97 1751.46 1273.95 1750.69 1267.53 1752.76 1261.8 1757.37 1247.52 1757.21 1231.99 1752.31 1217.82" stroke="#1C839D" stroke-width="4.1084" stroke-linecap="round" stroke-linejoin="round" stroke-miterlimit="10" fill="none" fill-rule="evenodd"/><path d="M1698.88 1171.82C1724.2 1187.96 1740.65 1213.37 1741.93 1246.21 1742.35 1258 1732.95 1262.05 1721.18 1258.4 1696.55 1250.77 1637.84 1231.22 1602.06 1333.63 1595.21 1354.88 1590.15 1376.69 1586.94 1398.82" stroke="#1C839D" stroke-width="4.1084" stroke-linecap="round" stroke-linejoin="round" stroke-miterlimit="10" fill="none" fill-rule="evenodd"/><path d="M1648.89 1173.83C1664.71 1173.61 1680.34 1177.32 1694.43 1184.65 1718.49 1197.78 1733.65 1228.65 1725.9 1236.51 1717.32 1245.23 1701.34 1224.17 1652.51 1244.49 1629.04 1254.25 1612.37 1274.13 1601.05 1296.71 1595.94 1307.03 1591.62 1317.73 1588.14 1328.72 1583.6 1342.86 1579.85 1357.25 1576.94 1371.82" stroke="#1C839D" stroke-width="4.1084" stroke-linecap="round" stroke-linejoin="round" stroke-miterlimit="10" fill="none" fill-rule="evenodd"/><path d="M1620.88 1192.42C1629.42 1190.13 1638.2 1188.93 1647.03 1188.85 1689.81 1187.84 1705.86 1211.16 1701.15 1217.07 1697.2 1222.05 1688.4 1219.24 1676.34 1220.75 1641.53 1225.12 1614.02 1245.36 1595.49 1275.27 1586.34 1290.43 1579.06 1306.67 1573.79 1323.64 1572.8 1326.67 1571.85 1329.75 1570.94 1332.82" stroke="#1C839D" stroke-width="4.1084" stroke-linecap="round" stroke-linejoin="round" stroke-miterlimit="10" fill="none" fill-rule="evenodd"/><path d="M1600.45 1218.03C1614.94 1206.22 1633.19 1200.14 1651.8 1200.88 1657.32 1200.88 1670.94 1202.69 1672.76 1207.94 1675.18 1214.84 1653.06 1205.47 1621.01 1227 1579.93 1254.64 1574.94 1280.82 1574.94 1280.82" stroke="#1C839D" stroke-width="4.1084" stroke-linecap="round" stroke-linejoin="round" stroke-miterlimit="10" fill="none" fill-rule="evenodd"/><path d="M1762.94 1408.82C1762.94 1408.82 1784.02 1360.38 1781.78 1322.95 1780.4 1298.85 1769.22 1283.75 1767.46 1273.02 1765.71 1262.29 1770.61 1259.65 1769.29 1249.82" stroke="#1C839D" stroke-width="4.1084" stroke-linecap="round" stroke-linejoin="round" stroke-miterlimit="10" fill="none" fill-rule="evenodd"/><path d="M1496.94 1180.82 1496.94 1112.82 1564.94 1112.82" stroke="#1C839D" stroke-width="4.1084" stroke-linecap="round" stroke-linejoin="round" stroke-miterlimit="10" fill="none" fill-rule="evenodd"/><path d="M1564.94 1517.82 1496.94 1517.82 1496.94 1448.82" stroke="#1C839D" stroke-width="4.1084" stroke-linecap="round" stroke-linejoin="round" stroke-miterlimit="10" fill="none" fill-rule="evenodd"/><path d="M1855.94 1180.82 1855.94 1112.82 1788.94 1112.82" stroke="#1C839D" stroke-width="4.1084" stroke-linecap="round" stroke-linejoin="round" stroke-miterlimit="10" fill="none" fill-rule="evenodd"/><path d="M1788.94 1517.82 1855.94 1517.82 1855.94 1448.82" stroke="#1C839D" stroke-width="4.1084" stroke-linecap="round" stroke-linejoin="round" stroke-miterlimit="10" fill="none" fill-rule="evenodd"/><path d="M519.995 1966.66C520.01 1966.66 520.026 1966.66 520.042 1966.66 526.447 1966.66 531.638 1972.47 531.638 1979.64 531.651 1986.83 526.46 1992.66 520.042 1992.67 513.624 1992.7 508.411 1986.88 508.398 1979.69 508.384 1972.51 513.576 1966.67 519.995 1966.66ZM179.47 1909.77 252.868 1909.77 252.868 1929.42 179.47 1929.42ZM146.577 1909.77 164.125 1909.77 164.125 1929.42 146.577 1929.42ZM654.932 1878.95C661.35 1878.95 666.552 1884.78 666.552 1891.97 666.552 1899.15 661.35 1904.98 654.932 1904.98L647.826 1901.68 539.985 1971.42 539.985 1936.44 535.391 1934.32C533.284 1931.98 531.977 1928.72 531.971 1925.14 531.957 1917.95 537.149 1912.11 543.567 1912.09 543.574 1912.09 543.583 1912.09 543.591 1912.09 549.999 1912.09 555.198 1917.91 555.211 1925.08 555.217 1928.67 553.922 1931.92 551.824 1934.29L547.195 1936.44 547.195 1957.44 609.956 1916.86 588.625 1892.98 540.222 1892.98 466.376 1975.66 468.272 1980.79C468.272 1980.8 468.272 1980.8 468.272 1980.81 468.272 1988 463.069 1993.82 456.651 1993.82 450.234 1993.82 445.031 1988 445.031 1980.81 445.031 1973.62 450.234 1967.8 456.653 1967.8 456.66 1967.8 456.667 1967.8 456.676 1967.8L461.287 1969.94 537.234 1884.91 591.613 1884.91 616.405 1912.69 644.302 1894.65 643.312 1891.97C643.312 1884.78 648.514 1878.95 654.932 1878.95ZM736.297 1826.82C736.306 1826.82 736.313 1826.82 736.321 1826.82 742.73 1826.82 747.929 1832.62 747.942 1839.8 747.955 1846.98 742.762 1852.82 736.346 1852.83 733.136 1852.84 730.229 1851.39 728.122 1849.04L726.143 1843.72 511.599 1841.47 446.166 1910.95 462.462 1929.17 523.338 1860.98 682.523 1860.98 684.405 1855.87C686.504 1853.5 689.406 1852.04 692.614 1852.03 692.623 1852.03 692.63 1852.03 692.638 1852.03 699.047 1852.03 704.246 1857.85 704.259 1865.02 704.272 1872.21 699.08 1878.05 692.663 1878.06 689.453 1878.07 686.546 1876.62 684.439 1874.26L682.5 1869.05 526.326 1869.05 462.462 1940.58 440.596 1916.1 269.162 1916.1 269.162 1908.06 438.439 1908.06 508.753 1833.37 726.235 1835.68 728.088 1830.64C730.186 1828.29 733.088 1826.82 736.297 1826.82ZM416.289 1814.3C422.707 1814.3 427.909 1820.13 427.909 1827.31 427.909 1834.5 422.707 1840.33 416.289 1840.33 413.08 1840.33 410.175 1838.87 408.072 1836.51L405.974 1830.85 276.561 1830.85 276.561 1822.78 406.348 1822.78 408.072 1818.12C410.175 1815.76 413.08 1814.3 416.289 1814.3ZM152.103 1811.56 172.758 1811.56 172.758 1834.69 152.103 1834.69ZM183.154 1811.09 247.895 1811.09 247.895 1834.21 183.154 1834.21ZM290.55 1777.44C290.565 1777.44 290.581 1777.44 290.597 1777.44 293.799 1777.44 296.698 1778.9 298.798 1781.24L300.707 1786.41 438.439 1786.41 438.439 1794.47 300.704 1794.47 298.807 1799.64C296.708 1801.99 293.806 1803.45 290.597 1803.46 284.179 1803.47 278.966 1797.66 278.952 1790.48 278.939 1783.29 284.132 1777.46 290.55 1777.44ZM85.1403 1774.77 247.896 1774.77 247.896 1794.42 85.1403 1794.42ZM61.5377 1771.73C61.5539 1771.73 61.5701 1771.73 61.5853 1771.73 67.9901 1771.73 73.1826 1777.54 73.1826 1784.71 73.1956 1791.9 68.0031 1797.73 61.5853 1797.74 55.1672 1797.77 49.9544 1791.95 49.9414 1784.76 49.9284 1777.58 55.1199 1771.74 61.5377 1771.73ZM266.523 1738.31 313.645 1738.31 313.645 1757.96 266.523 1757.96ZM234.033 1738.31 251.583 1738.31 251.583 1757.96 234.033 1757.96ZM463.834 1724.22 514.277 1724.22 517.523 1759.23C525.43 1761.3 533.055 1764.21 540.251 1767.88L569.232 1745.28 604.945 1778.38 580.557 1805.24 584.542 1814.23 631.857 1814.23 631.857 1822.3 492.01 1822.3 428.644 1893.19 278.505 1893.19 278.505 1899.45 185.471 1899.45 185.471 1876.3 278.505 1876.3 278.505 1885.12 425.679 1885.12 448.359 1859.73 323.018 1859.73 323.018 1856.92 320.462 1863.82C318.36 1866.18 315.454 1867.64 312.245 1867.64 305.828 1867.64 300.625 1861.81 300.625 1854.63 300.625 1847.44 305.828 1841.61 312.245 1841.61 315.454 1841.61 318.36 1843.07 320.462 1845.43L323.018 1852.33 323.018 1851.65 455.568 1851.65 488.998 1814.23 579.779 1814.23 544.8 1808.88C499.687 1799.64 456.17 1786 414.715 1768.44L394.607 1758.75 408.879 1745.43 437.861 1768.03C445.034 1764.37 452.631 1761.46 460.508 1759.38ZM198.962 1654.62C199.009 1654.62 199.057 1654.62 199.105 1654.62 218.396 1654.62 234.033 1670.27 234.033 1689.59 234.073 1708.95 218.435 1724.66 199.105 1724.7 179.775 1724.75 164.073 1709.09 164.033 1689.73 163.994 1670.37 179.631 1654.65 198.962 1654.62ZM162.838 1498.82 234.107 1498.82 238.699 1548.06C249.727 1550.99 260.354 1555.08 270.375 1560.24L311.157 1528.47 361.361 1574.48 326.994 1612.27C332.62 1621.54 337.033 1631.39 340.139 1641.62L393.352 1645.88 393.352 1711.93 340.139 1716.7 336.236 1725.42 284.762 1692.82 279.9 1688.75 280.907 1679.57C280.907 1637.38 243.999 1603.17 198.473 1603.17L187.124 1604.23 152.681 1566.74 143.549 1553.71 158.246 1548.06Z" fill="url(#fill5)" fill-rule="evenodd"/><path d="M2444.11 1902.14C2432.99 1930.49 2427.43 1945.35 2427.43 1946.69 2427.43 1948.51 2429.47 1949.59 2433.55 1949.91 2433.77 1949.96 2436.4 1949.99 2441.45 1949.99L2449.75 1949.99C2457.43 1949.99 2461.27 1948.92 2461.27 1946.77 2461.27 1945.21 2458.85 1938.23 2454.02 1925.82 2449.35 1913.79 2446.04 1905.89 2444.11 1902.14ZM2453.45 1877.16C2453.94 1877.16 2454.61 1878.15 2455.47 1880.14 2456.76 1883.15 2463.12 1899.34 2474.56 1928.72 2490.73 1970.03 2498.81 1990.87 2498.81 1991.24 2498.81 1991.89 2498.17 1992.21 2496.88 1992.21 2495.86 1992.21 2494.37 1992.13 2492.41 1991.97 2490.45 1991.81 2488.96 1991.72 2487.94 1991.72 2486.92 1991.72 2485.39 1991.81 2483.34 1991.97 2481.3 1992.13 2479.77 1992.21 2478.75 1992.21 2477.25 1992.21 2475.33 1988.14 2472.99 1980 2470.66 1971.87 2468.28 1967.74 2465.86 1967.64 2463.87 1967.53 2458.69 1967.47 2450.31 1967.47L2437.58 1967.47C2428.72 1967.47 2423.67 1967.53 2422.44 1967.64 2420.5 1967.8 2418.45 1971.93 2416.27 1980.04 2414.1 1988.15 2412.42 1992.21 2411.24 1992.21L2393.11 1992.21C2392.04 1992.21 2391.5 1991.83 2391.5 1991.08 2391.5 1990.54 2391.88 1989.33 2392.63 1987.45L2412.37 1933.48C2414.03 1929.12 2419.08 1916.58 2427.51 1895.85 2429.02 1892.41 2431.06 1887.23 2433.64 1880.3 2434.28 1878.26 2434.98 1877.24 2435.73 1877.24 2436.75 1877.24 2438.25 1877.37 2440.24 1877.64 2442.23 1877.91 2443.73 1878.05 2444.75 1878.05 2445.72 1878.05 2447.18 1877.9 2449.14 1877.6 2451.1 1877.31 2452.54 1877.16 2453.45 1877.16Z" fill="url(#fill6)" fill-rule="evenodd"/><text fill="#000000" fill-opacity="0" font-family="Arial,Arial_MSFontService,sans-serif" font-size="115.049" x="2391.5" y="1977.83">A </text><path d="M2912.11 1928.32C2905.66 1928.32 2900.29 1930.84 2896 1935.89 2891.86 1940.73 2889.79 1946.42 2889.79 1952.97 2889.79 1959.47 2891.86 1965.11 2896 1969.89 2900.29 1974.89 2905.66 1977.38 2912.11 1977.38 2918.39 1977.38 2923.66 1974.83 2927.9 1969.73 2931.88 1964.95 2933.86 1959.36 2933.86 1952.97 2933.86 1946.37 2931.9 1940.7 2927.98 1935.97 2923.85 1930.87 2918.55 1928.32 2912.11 1928.32ZM2729.65 1928.16C2723.84 1928.16 2719.14 1930.47 2715.55 1935.09 2712.27 1939.28 2710.63 1944.35 2710.63 1950.31 2710.63 1956.17 2712.3 1961.22 2715.63 1965.46 2719.23 1970.08 2723.9 1972.39 2729.65 1972.39 2735.34 1972.39 2740.01 1970.08 2743.66 1965.46 2747.05 1961.22 2748.74 1956.17 2748.74 1950.31 2748.74 1944.3 2747.1 1939.2 2743.82 1935.01 2740.23 1930.44 2735.5 1928.16 2729.65 1928.16ZM2783.98 1916.15C2784.95 1916.15 2786.44 1916.29 2788.45 1916.56 2790.47 1916.83 2791.99 1916.96 2793.01 1916.96 2794.03 1916.96 2795.54 1916.83 2797.56 1916.56 2799.57 1916.29 2801.09 1916.15 2802.11 1916.15 2803.02 1916.15 2803.48 1916.66 2803.48 1917.68 2803.48 1921.82 2803.22 1928.06 2802.71 1936.42 2802.2 1944.77 2801.95 1951.04 2801.95 1955.23 2801.95 1959.15 2802.03 1965.02 2802.19 1972.83 2802.35 1980.65 2802.43 1986.49 2802.43 1990.36 2802.43 1991.48 2801.95 1992.05 2800.98 1992.05L2785.27 1992.05C2784.14 1992.05 2783.58 1990.95 2783.58 1988.74 2783.58 1985.04 2783.67 1979.47 2783.86 1972.03 2784.05 1964.59 2784.14 1958.99 2784.14 1955.23 2784.14 1951.04 2783.83 1944.75 2783.22 1936.38 2782.6 1928 2782.29 1921.71 2782.29 1917.52 2782.29 1916.61 2782.85 1916.15 2783.98 1916.15ZM2661.98 1916.15C2662.95 1916.15 2664.44 1916.29 2666.45 1916.56 2668.47 1916.83 2669.99 1916.96 2671.01 1916.96 2672.03 1916.96 2673.54 1916.83 2675.56 1916.56 2677.57 1916.29 2679.09 1916.15 2680.11 1916.15 2681.02 1916.15 2681.48 1916.66 2681.48 1917.68 2681.48 1921.82 2681.22 1928.06 2680.71 1936.42 2680.2 1944.77 2679.95 1951.04 2679.95 1955.23 2679.95 1959.15 2680.03 1965.02 2680.19 1972.83 2680.35 1980.65 2680.43 1986.49 2680.43 1990.36 2680.43 1991.48 2679.95 1992.05 2678.98 1992.05L2663.27 1992.05C2662.14 1992.05 2661.58 1990.95 2661.58 1988.74 2661.58 1985.04 2661.67 1979.47 2661.86 1972.03 2662.05 1964.59 2662.14 1958.99 2662.14 1955.23 2662.14 1951.04 2661.83 1944.75 2661.22 1936.38 2660.6 1928 2660.29 1921.71 2660.29 1917.52 2660.29 1916.61 2660.85 1916.15 2661.98 1916.15ZM2909.77 1912.21C2917.99 1912.21 2925.16 1915.05 2931.28 1920.75 2932.2 1921.82 2933.62 1923.38 2935.55 1925.42 2935.72 1925.58 2935.88 1925.66 2936.04 1925.66 2936.36 1925.66 2936.82 1923.97 2937.41 1920.58 2938 1917.2 2938.75 1915.51 2939.66 1915.51 2941.11 1915.51 2943.83 1915.91 2947.8 1916.72 2952.2 1917.68 2954.41 1918.54 2954.41 1919.3 2954.41 1919.51 2954.33 1919.99 2954.17 1920.75 2952.07 1933.05 2951.02 1943.65 2951.02 1952.57 2951.02 1953.11 2951.69 1965.16 2953.04 1988.74L2953.12 1989.87C2953.17 1991.43 2952.46 1992.21 2950.98 1992.21 2949.51 1992.21 2947.28 1992.38 2944.3 1992.73 2941.31 1993.08 2939.1 1993.26 2937.65 1993.26 2936.63 1993.26 2935.85 1991.38 2935.31 1987.62 2934.78 1983.86 2934.27 1981.98 2933.78 1981.98 2933.46 1981.98 2932.01 1983.02 2929.43 1985.12 2926.26 1987.7 2923.31 1989.66 2920.57 1991 2916.33 1993.15 2912.08 1994.22 2907.84 1994.22 2897.42 1994.22 2888.64 1990.06 2881.49 1981.73 2874.73 1973.79 2871.34 1964.52 2871.34 1953.94 2871.34 1942.02 2874.75 1932.16 2881.57 1924.37 2888.72 1916.26 2898.12 1912.21 2909.77 1912.21ZM2749.63 1911.72C2750.16 1911.72 2753.06 1912.22 2758.33 1913.21 2763.59 1914.21 2766.46 1914.81 2766.95 1915.03 2767.7 1915.29 2768.08 1915.99 2768.08 1917.12 2768.08 1923.57 2768.02 1933.25 2767.91 1946.16 2767.81 1959.08 2767.75 1968.76 2767.75 1975.21 2767.75 1987.99 2765.01 1997.42 2759.54 2003.49 2753.79 2009.93 2744.6 2013.16 2731.98 2013.16 2719.79 2013.16 2709.93 2010.85 2702.41 2006.23 2701.23 2005.47 2700.64 2004.83 2700.64 2004.29 2700.64 2004.88 2701.45 2000.91 2703.06 1992.37 2703.22 1991.46 2703.6 1991 2704.19 1991 2704.45 1991 2704.8 1991.13 2705.23 1991.4 2713.29 1996.02 2721.37 1998.33 2729.48 1998.33 2734.8 1998.33 2739.21 1997.15 2742.7 1994.79 2746.73 1992.1 2748.74 1988.21 2748.74 1983.1 2748.74 1981.98 2748.63 1979.45 2748.42 1975.53 2742.46 1982.78 2734.88 1986.41 2725.7 1986.41 2715.76 1986.41 2707.6 1982.84 2701.21 1975.69 2695.08 1968.82 2692.02 1960.36 2692.02 1950.31 2692.02 1940.11 2694.97 1931.43 2700.88 1924.29 2707.17 1916.66 2715.33 1912.85 2725.38 1912.85 2734.24 1912.85 2741.27 1916.26 2746.48 1923.08 2747.34 1924.21 2747.96 1924.77 2748.34 1924.77 2748.77 1924.77 2748.98 1924.29 2748.98 1923.32 2748.98 1922.63 2748.93 1921.51 2748.82 1919.98 2748.71 1918.45 2748.66 1917.31 2748.66 1916.56 2748.66 1913.33 2748.98 1911.72 2749.63 1911.72ZM2579.71 1895.21C2573.43 1895.53 2570.29 1896.68 2570.29 1898.67 2570.29 1902.81 2570.19 1909 2570 1917.24 2569.82 1925.49 2569.72 1931.68 2569.72 1935.81 2569.72 1939.89 2569.82 1946.02 2570 1954.18 2570.19 1962.35 2570.29 1968.47 2570.29 1972.55 2570.29 1974.59 2573.51 1975.77 2579.95 1976.1 2579.09 1976.04 2583.01 1976.01 2591.72 1976.01 2597.89 1976.01 2602.81 1975.37 2606.46 1974.08 2610.97 1972.47 2615.03 1969.49 2618.62 1965.14 2625.34 1956.97 2628.7 1946.96 2628.7 1935.09 2628.7 1923.49 2625.39 1914.03 2618.79 1906.73 2611.91 1899.15 2602.73 1895.37 2591.23 1895.37 2581.73 1895.37 2577.89 1895.31 2579.71 1895.21ZM2823.93 1888.44C2824.41 1888.44 2829.46 1889.27 2839.08 1890.94 2840.31 1891.1 2840.93 1891.69 2840.93 1892.71 2840.93 1895.07 2840.75 1898.62 2840.41 1903.34 2840.06 1908.07 2839.88 1911.62 2839.88 1913.98 2839.88 1915.54 2840.61 1916.31 2842.06 1916.31L2861.39 1916.31C2862.31 1916.31 2862.76 1916.64 2862.76 1917.28 2862.76 1917.93 2862.67 1918.96 2862.48 1920.38 2862.29 1921.81 2862.2 1922.87 2862.2 1923.57 2862.2 1924.37 2862.23 1925.61 2862.28 1927.27 2862.33 1928.94 2862.36 1930.17 2862.36 1930.98 2862.36 1932 2861.61 1932.51 2860.1 1932.51 2857.96 1932.51 2854.71 1932.36 2850.36 1932.07 2846.01 1931.77 2842.76 1931.62 2840.61 1931.62 2840.18 1931.62 2839.86 1933.15 2839.64 1936.21 2839.37 1940.03 2839.24 1945.37 2839.24 1952.25L2839.24 1964.25C2839.24 1968.87 2839.67 1972.09 2840.53 1973.92 2841.82 1976.71 2844.47 1978.11 2848.5 1978.11 2850.17 1978.11 2852.61 1977.75 2855.83 1977.02 2859.06 1976.3 2861.45 1975.93 2863 1975.93 2863.65 1975.93 2863.97 1976.42 2863.97 1977.38 2863.97 1978.57 2863.86 1980.18 2863.65 1982.22 2863.38 1984.74 2863.22 1986.38 2863.17 1987.13 2863.11 1988.1 2863.03 1988.69 2862.92 1988.91 2862.71 1989.28 2862.2 1989.66 2861.39 1990.03 2856.99 1992.13 2850.06 1993.18 2840.61 1993.18 2828.04 1993.18 2821.75 1987.48 2821.75 1976.1 2821.75 1971.53 2821.86 1964.67 2822.08 1955.51 2822.29 1946.35 2822.4 1939.49 2822.4 1934.93 2822.4 1932.72 2821.3 1931.54 2819.1 1931.38 2817.11 1931.38 2815.15 1931.35 2813.21 1931.3 2812.09 1931.03 2811.52 1928.83 2811.52 1924.69 2811.52 1923.14 2811.63 1921.5 2811.85 1919.78 2812.01 1918.49 2812.87 1917.71 2814.42 1917.44 2815.77 1917.44 2817.08 1917.42 2818.37 1917.36 2820.84 1917.25 2822.08 1916.15 2822.08 1914.06 2822.08 1911.91 2822.01 1908.63 2821.88 1904.23 2821.74 1899.83 2821.67 1896.52 2821.67 1894.32 2821.67 1890.4 2822.43 1888.44 2823.93 1888.44ZM2793.01 1885.78C2796.01 1885.78 2798.61 1886.72 2800.78 1888.6 2802.96 1890.48 2804.04 1892.9 2804.04 1895.85 2804.04 1902.46 2800.36 1905.76 2793.01 1905.76 2785.54 1905.76 2781.81 1902.46 2781.81 1895.85 2781.81 1892.9 2782.96 1890.45 2785.27 1888.52 2787.42 1886.69 2790 1885.78 2793.01 1885.78ZM2671.01 1885.78C2674.01 1885.78 2676.61 1886.72 2678.78 1888.6 2680.96 1890.48 2682.04 1892.9 2682.04 1895.85 2682.04 1902.46 2678.36 1905.76 2671.01 1905.76 2663.54 1905.76 2659.81 1902.46 2659.81 1895.85 2659.81 1892.9 2660.96 1890.45 2663.27 1888.52 2665.42 1886.69 2668 1885.78 2671.01 1885.78ZM2968.47 1879.17C2969.43 1879.17 2970.88 1879.25 2972.82 1879.42 2974.75 1879.58 2976.2 1879.66 2977.17 1879.66 2978.19 1879.66 2979.69 1879.58 2981.68 1879.42 2983.67 1879.25 2985.14 1879.17 2986.11 1879.17 2987.08 1879.17 2987.53 1879.6 2987.48 1880.46L2987.4 1881.51C2986.22 1901.49 2985.63 1918.65 2985.63 1932.99 2985.63 1939.38 2985.73 1948.96 2985.95 1961.71 2986.16 1974.47 2986.27 1984.02 2986.27 1990.36 2986.27 1991.59 2985.84 1992.21 2984.98 1992.21L2969.59 1992.21C2968.63 1992.21 2968.14 1991.59 2968.14 1990.36 2968.14 1984.02 2968.2 1974.47 2968.3 1961.71 2968.41 1948.96 2968.47 1939.38 2968.47 1932.99 2968.47 1927.19 2968.18 1918.48 2967.62 1906.85 2967.06 1895.22 2966.77 1886.53 2966.77 1880.79 2966.77 1879.71 2967.34 1879.17 2968.47 1879.17ZM2551.75 1879.17C2553.74 1879.17 2556.71 1879.2 2560.66 1879.25 2564.61 1879.31 2567.57 1879.33 2569.56 1879.33 2571.39 1879.33 2574.18 1879.31 2577.94 1879.25 2581.7 1879.2 2584.55 1879.17 2586.48 1879.17 2605.12 1879.17 2619 1882.69 2628.13 1889.73 2634.68 1894.78 2639.76 1901.57 2643.36 1910.11 2646.74 1918.06 2648.43 1926.39 2648.43 1935.09 2648.43 1950.18 2644.14 1963.23 2635.54 1974.24 2626.2 1986.22 2614.22 1992.21 2599.61 1992.21 2596.82 1992.21 2592.62 1992.1 2587 1991.89 2581.39 1991.67 2577.19 1991.56 2574.39 1991.56 2571.87 1991.56 2568.07 1991.67 2562.99 1991.89 2557.92 1992.1 2554.12 1992.21 2551.59 1992.21 2550.25 1992.21 2549.58 1991.54 2549.58 1990.19 2549.58 1984.34 2549.81 1975.5 2550.26 1963.69 2550.72 1951.87 2550.95 1943.01 2550.95 1937.1 2550.95 1930.87 2550.73 1921.5 2550.3 1908.98 2549.88 1896.47 2549.66 1887.1 2549.66 1880.87 2549.66 1879.74 2550.36 1879.17 2551.75 1879.17Z" fill="url(#fill7)" fill-rule="evenodd"/><text fill="#000000" fill-opacity="0" font-family="Arial,Arial_MSFontService,sans-serif" font-size="133.982" x="2549.58" y="1996.41">Digital </text><path d="M3455.68 1928.32C3449.24 1928.32 3443.87 1930.84 3439.57 1935.89 3435.43 1940.73 3433.37 1946.42 3433.37 1952.97 3433.37 1959.47 3435.43 1965.11 3439.57 1969.89 3443.87 1974.89 3449.24 1977.38 3455.68 1977.38 3461.97 1977.38 3467.23 1974.83 3471.47 1969.73 3475.45 1964.95 3477.44 1959.36 3477.44 1952.97 3477.44 1946.37 3475.47 1940.7 3471.55 1935.97 3467.42 1930.87 3462.13 1928.32 3455.68 1928.32ZM3366.47 1928.32C3360.24 1928.32 3355.14 1931 3351.16 1936.38 3347.51 1941.21 3345.68 1946.85 3345.68 1953.29 3345.68 1959.85 3347.56 1965.54 3351.32 1970.37 3355.46 1975.58 3360.72 1978.19 3367.11 1978.19 3373.24 1978.19 3378.39 1975.48 3382.58 1970.05 3386.45 1965 3388.38 1959.36 3388.38 1953.13 3388.38 1946.69 3386.37 1941.02 3382.34 1936.13 3378.1 1930.92 3372.81 1928.32 3366.47 1928.32ZM3274.47 1928.32C3268.24 1928.32 3263.14 1931 3259.16 1936.38 3255.51 1941.21 3253.68 1946.85 3253.68 1953.29 3253.68 1959.85 3255.56 1965.54 3259.32 1970.37 3263.46 1975.58 3268.72 1978.19 3275.11 1978.19 3281.24 1978.19 3286.39 1975.48 3290.58 1970.05 3294.45 1965 3296.38 1959.36 3296.38 1953.13 3296.38 1946.69 3294.37 1941.02 3290.34 1936.13 3286.1 1930.92 3280.81 1928.32 3274.47 1928.32ZM3148.83 1916.15C3150.38 1916.15 3152.72 1916.18 3155.83 1916.23 3158.95 1916.29 3161.29 1916.31 3162.84 1916.31 3163.92 1916.31 3164.46 1916.91 3164.46 1918.09 3164.46 1920.18 3164.11 1923.67 3163.41 1928.56 3162.66 1933.77 3162.25 1937.45 3162.2 1939.6 3162.04 1942.82 3161.96 1946.37 3161.96 1950.23 3161.96 1959.63 3162.63 1965.94 3163.97 1969.17 3166.28 1974.97 3171.41 1977.87 3179.36 1977.87 3182.74 1977.87 3186.75 1976.2 3191.36 1972.87 3196.25 1969.38 3198.78 1966.02 3198.94 1962.8 3199.21 1958.77 3199.34 1944.59 3199.34 1920.26 3199.34 1917.63 3200.44 1916.31 3202.64 1916.31L3215.94 1916.31C3217.49 1916.31 3218.27 1917.25 3218.27 1919.13 3218.27 1923.06 3218.11 1928.98 3217.79 1936.9 3217.47 1944.82 3217.31 1950.77 3217.31 1954.74 3217.31 1958.67 3217.43 1964.53 3217.67 1972.35 3217.91 1980.16 3218.03 1986.03 3218.03 1989.95 3218.03 1991.03 3217.52 1991.72 3216.5 1992.05 3216.07 1992.15 3210.62 1992.21 3200.15 1992.21 3199.5 1992.21 3199.11 1990.19 3198.98 1986.17 3198.84 1982.14 3198.53 1980.12 3198.05 1980.12 3197.78 1980.12 3197.38 1980.37 3196.84 1980.85 3187.87 1988.64 3179.01 1992.53 3170.26 1992.53 3158.39 1992.53 3150.54 1988.23 3146.73 1979.64 3144.37 1974.32 3143.19 1964.76 3143.19 1950.96 3143.19 1938.5 3144.18 1927.94 3146.17 1919.3 3146.65 1917.2 3147.54 1916.15 3148.83 1916.15ZM3557.59 1913.17C3569.95 1913.17 3577.81 1918.22 3581.2 1928.32 3584.53 1924.02 3588.66 1920.48 3593.6 1917.68 3598.87 1914.68 3604.08 1913.17 3609.23 1913.17 3619.17 1913.17 3626.05 1916.07 3629.86 1921.87 3632.6 1926.17 3633.97 1932.97 3633.97 1942.26 3633.97 1944.03 3633.92 1946.77 3633.81 1950.47 3633.7 1954.18 3633.65 1956.92 3633.65 1958.69 3633.65 1962.08 3633.73 1967.17 3633.89 1973.96 3634.05 1980.75 3634.13 1985.84 3634.13 1989.23 3634.13 1991.32 3633.51 1992.37 3632.28 1992.37 3631.47 1992.37 3630.25 1992.29 3628.61 1992.13 3626.97 1991.97 3625.72 1991.89 3624.86 1991.89 3623.95 1991.89 3622.58 1991.94 3620.76 1992.05 3618.93 1992.15 3617.56 1992.21 3616.65 1992.21 3615.52 1992.21 3614.96 1990.95 3614.96 1988.42 3614.96 1985.95 3615.05 1982.26 3615.24 1977.34 3615.43 1972.43 3615.52 1968.74 3615.52 1966.27 3615.52 1952.68 3615.47 1945.1 3615.36 1943.55 3614.93 1938.01 3613.8 1934.2 3611.97 1932.11 3609.88 1929.85 3606.15 1928.72 3600.78 1928.72 3597.39 1928.72 3593.58 1930.33 3589.33 1933.56 3584.93 1936.94 3582.65 1940.27 3582.49 1943.55 3582.27 1947.74 3582.16 1955.39 3582.16 1966.51 3582.16 1969.14 3582.27 1973.09 3582.49 1978.35 3582.7 1983.61 3582.81 1987.56 3582.81 1990.19 3582.81 1991.64 3582.33 1992.37 3581.36 1992.37 3580.39 1992.37 3578.98 1992.29 3577.13 1992.13 3575.28 1991.97 3573.87 1991.89 3572.9 1991.89 3572.04 1991.89 3570.78 1991.94 3569.11 1992.05 3567.45 1992.15 3566.19 1992.21 3565.33 1992.21 3564.25 1992.21 3563.71 1991.43 3563.71 1989.87 3563.71 1987.29 3563.8 1983.41 3563.96 1978.23 3564.12 1973.05 3564.2 1969.17 3564.2 1966.59L3564.2 1947.17C3564.2 1941.1 3563.47 1936.78 3562.02 1934.2 3559.98 1930.55 3556.09 1928.72 3550.34 1928.72 3546.96 1928.72 3542.93 1930.15 3538.26 1932.99 3533.1 1936.11 3530.52 1939.25 3530.52 1942.42L3530.52 1965.94C3530.52 1968.63 3530.55 1972.63 3530.6 1977.95 3530.66 1983.27 3530.68 1987.24 3530.68 1989.87 3530.68 1991.43 3530.06 1992.21 3528.83 1992.21L3513.84 1992.21C3512.77 1992.21 3512.23 1991.48 3512.23 1990.03 3512.23 1985.68 3512.26 1979.14 3512.31 1970.42 3512.37 1961.69 3512.39 1955.15 3512.39 1950.8 3512.39 1940.97 3511.35 1931.17 3509.25 1921.39 3509.09 1920.69 3509.01 1920.13 3509.01 1919.7 3509.01 1919 3509.25 1918.6 3509.74 1918.49 3511.72 1918.28 3514.62 1917.87 3518.44 1917.28 3520.21 1916.74 3522.87 1916.15 3526.41 1915.51L3527.06 1915.43C3527.7 1915.43 3528.31 1917.32 3528.87 1921.11 3529.43 1924.9 3529.93 1926.79 3530.36 1926.79 3530.36 1926.79 3531.7 1925.61 3534.39 1923.24 3537.56 1920.5 3540.73 1918.33 3543.9 1916.72 3548.46 1914.35 3553.03 1913.17 3557.59 1913.17ZM3369.77 1912.69C3380.41 1912.69 3389.38 1916.85 3396.68 1925.18 3403.72 1933.18 3407.24 1942.61 3407.24 1953.46 3407.24 1964.31 3403.8 1973.73 3396.92 1981.73 3389.73 1990.17 3380.78 1994.38 3370.09 1994.38 3363.43 1994.38 3357.61 1992.32 3352.61 1988.18 3350.36 1986.09 3348.1 1983.96 3345.84 1981.82 3345.52 1981.98 3345.31 1982.41 3345.2 1983.1 3345.15 1983.43 3345.12 1986.43 3345.12 1992.13L3345.04 2014.85C3345.04 2016.57 3344.42 2017.43 3343.19 2017.43 3334.91 2017.43 3330.03 2017.32 3328.52 2017.1 3327.29 2016.94 3326.67 2016.24 3326.67 2015.01 3326.67 2008.13 3326.72 1997.82 3326.83 1984.07 3326.94 1970.32 3326.99 1960.01 3326.99 1953.13 3326.99 1940.51 3326.19 1928.67 3324.57 1917.6 3324.47 1916.96 3324.41 1916.53 3324.41 1916.31 3324.41 1915.72 3324.68 1915.35 3325.22 1915.19 3327.26 1915.08 3330.24 1914.78 3334.16 1914.3 3339.43 1913.33 3342.38 1912.85 3343.02 1912.85 3343.94 1912.85 3344.53 1914.46 3344.8 1917.68 3344.96 1919.83 3345.09 1921.95 3345.2 1924.05 3345.2 1924.48 3345.36 1924.91 3345.68 1925.34 3346.06 1925.12 3346.49 1924.75 3346.97 1924.21 3354.49 1916.53 3362.09 1912.69 3369.77 1912.69ZM3277.77 1912.69C3288.41 1912.69 3297.38 1916.85 3304.68 1925.18 3311.72 1933.18 3315.24 1942.61 3315.24 1953.46 3315.24 1964.31 3311.8 1973.73 3304.92 1981.73 3297.73 1990.17 3288.78 1994.38 3278.09 1994.38 3271.43 1994.38 3265.61 1992.32 3260.61 1988.18 3258.36 1986.09 3256.1 1983.96 3253.84 1981.82 3253.52 1981.98 3253.31 1982.41 3253.2 1983.1 3253.15 1983.43 3253.12 1986.43 3253.12 1992.13L3253.04 2014.85C3253.04 2016.57 3252.42 2017.43 3251.19 2017.43 3242.91 2017.43 3238.03 2017.32 3236.52 2017.1 3235.29 2016.94 3234.67 2016.24 3234.67 2015.01 3234.67 2008.13 3234.72 1997.82 3234.83 1984.07 3234.94 1970.32 3234.99 1960.01 3234.99 1953.13 3234.99 1940.51 3234.19 1928.67 3232.57 1917.6 3232.47 1916.96 3232.41 1916.53 3232.41 1916.31 3232.41 1915.72 3232.68 1915.35 3233.22 1915.19 3235.26 1915.08 3238.24 1914.78 3242.16 1914.3 3247.43 1913.33 3250.38 1912.85 3251.02 1912.85 3251.94 1912.85 3252.53 1914.46 3252.8 1917.68 3252.96 1919.83 3253.09 1921.95 3253.2 1924.05 3253.2 1924.48 3253.36 1924.91 3253.68 1925.34 3254.06 1925.12 3254.49 1924.75 3254.97 1924.21 3262.49 1916.53 3270.09 1912.69 3277.77 1912.69ZM3453.35 1912.21C3461.56 1912.21 3468.73 1915.05 3474.86 1920.75 3475.77 1921.82 3477.19 1923.38 3479.13 1925.42 3479.29 1925.58 3479.45 1925.66 3479.61 1925.66 3479.93 1925.66 3480.39 1923.97 3480.98 1920.58 3481.57 1917.2 3482.32 1915.51 3483.24 1915.51 3484.69 1915.51 3487.4 1915.91 3491.37 1916.72 3495.78 1917.68 3497.98 1918.54 3497.98 1919.3 3497.98 1919.51 3497.9 1919.99 3497.74 1920.75 3495.64 1933.05 3494.6 1943.65 3494.6 1952.57 3494.6 1953.11 3495.27 1965.16 3496.61 1988.74L3496.69 1989.87C3496.74 1991.43 3496.03 1992.21 3494.56 1992.21 3493.08 1992.21 3490.85 1992.38 3487.87 1992.73 3484.89 1993.08 3482.67 1993.26 3481.22 1993.26 3480.2 1993.26 3479.42 1991.38 3478.89 1987.62 3478.35 1983.86 3477.84 1981.98 3477.35 1981.98 3477.03 1981.98 3475.58 1983.02 3473 1985.12 3469.83 1987.7 3466.88 1989.66 3464.14 1991 3459.9 1993.15 3455.66 1994.22 3451.41 1994.22 3440.99 1994.22 3432.21 1990.06 3425.07 1981.73 3418.3 1973.79 3414.92 1964.52 3414.92 1953.94 3414.92 1942.02 3418.33 1932.16 3425.15 1924.37 3432.29 1916.26 3441.69 1912.21 3453.35 1912.21ZM3122.9 1878.85C3128.81 1878.85 3131.76 1879.68 3131.76 1881.35 3131.76 1882.32 3130.53 1886.67 3128.06 1894.4 3125.15 1903.42 3121.4 1911.37 3116.78 1918.25 3113.71 1922.92 3109.66 1927.62 3104.61 1932.35 3103.32 1933.48 3102.68 1934.5 3102.68 1935.41 3102.68 1936.38 3104.85 1941.18 3109.2 1949.83 3112.96 1957.3 3116.37 1963.29 3119.43 1967.8 3122.82 1971.93 3127.54 1978.3 3133.61 1986.89 3133.88 1987.37 3134.02 1987.88 3134.02 1988.42 3134.02 1990.95 3133.24 1992.21 3131.68 1992.21L3113.15 1992.21C3111.59 1992.21 3107.54 1986.49 3100.98 1975.05 3095.45 1965.38 3091.77 1958.4 3089.95 1954.1 3088.12 1949.96 3087.07 1947.66 3086.81 1947.17 3085.19 1944.49 3083.31 1943.06 3081.17 1942.9 3080.52 1942.85 3078.72 1942.82 3075.77 1942.82 3069 1942.82 3065.62 1943.65 3065.62 1945.32 3065.62 1950.26 3065.79 1957.65 3066.14 1967.47 3066.49 1977.3 3066.66 1984.66 3066.66 1989.55 3066.66 1991.32 3065.99 1992.21 3064.65 1992.21 3063.63 1992.21 3062.1 1992.13 3060.06 1991.97 3058.02 1991.81 3056.49 1991.72 3055.46 1991.72 3054.5 1991.72 3053.06 1991.81 3051.15 1991.97 3049.25 1992.13 3047.81 1992.21 3046.84 1992.21 3045.5 1992.21 3044.83 1991.59 3044.83 1990.36 3044.83 1984.45 3045.11 1975.57 3045.68 1963.73 3046.24 1951.88 3046.52 1943.01 3046.52 1937.1 3046.52 1930.87 3046.24 1921.51 3045.68 1909.02 3045.11 1896.54 3044.83 1887.18 3044.83 1880.95 3044.83 1879.76 3045.5 1879.17 3046.84 1879.17 3047.81 1879.17 3049.29 1879.25 3051.28 1879.42 3053.26 1879.58 3054.77 1879.66 3055.79 1879.66 3056.75 1879.66 3058.2 1879.58 3060.14 1879.42 3062.07 1879.25 3063.52 1879.17 3064.49 1879.17 3065.72 1879.17 3066.34 1879.66 3066.34 1880.62 3066.34 1885.19 3066.19 1892.06 3065.9 1901.25 3065.6 1910.43 3065.46 1917.34 3065.46 1921.95 3065.46 1924.05 3065.59 1925.37 3065.86 1925.9 3066.29 1926.87 3067.39 1927.35 3069.16 1927.35 3079.58 1927.35 3087.21 1925.42 3092.04 1921.55 3096.18 1918.11 3100.1 1911.8 3103.8 1902.62 3106.49 1895.42 3109.18 1888.22 3111.86 1881.03 3112.24 1880.11 3113.07 1879.5 3114.36 1879.17 3115.22 1878.96 3118.06 1878.85 3122.9 1878.85Z" fill="url(#fill8)" fill-rule="evenodd"/><text fill="#000000" fill-opacity="0" font-family="Arial,Arial_MSFontService,sans-serif" font-size="138.574" x="3044.83" y="2000.1">Kuppam</text><path d="M3823.49 1929.04C3817.05 1929.04 3811.7 1931.46 3807.46 1936.3 3803.43 1940.97 3801.42 1946.58 3801.42 1953.13 3801.42 1959.58 3803.46 1965.16 3807.54 1969.89 3811.84 1974.89 3817.15 1977.38 3823.49 1977.38 3829.88 1977.38 3835.2 1974.89 3839.44 1969.89 3843.47 1965.16 3845.49 1959.58 3845.49 1953.13 3845.49 1946.58 3843.47 1940.99 3839.44 1936.38 3835.25 1931.49 3829.94 1929.04 3823.49 1929.04ZM4141.5 1928.32C4135.06 1928.32 4129.69 1930.84 4125.39 1935.89 4121.26 1940.73 4119.19 1946.42 4119.19 1952.97 4119.19 1959.47 4121.26 1965.11 4125.39 1969.89 4129.69 1974.89 4135.06 1977.38 4141.5 1977.38 4147.79 1977.38 4153.05 1974.83 4157.3 1969.73 4161.27 1964.95 4163.26 1959.36 4163.26 1952.97 4163.26 1946.37 4161.3 1940.7 4157.38 1935.97 4153.24 1930.87 4147.95 1928.32 4141.5 1928.32ZM4052.29 1928.32C4046.06 1928.32 4040.96 1931 4036.98 1936.38 4033.33 1941.21 4031.51 1946.85 4031.51 1953.29 4031.51 1959.85 4033.39 1965.54 4037.15 1970.37 4041.28 1975.58 4046.54 1978.19 4052.94 1978.19 4059.06 1978.19 4064.22 1975.48 4068.41 1970.05 4072.27 1965 4074.21 1959.36 4074.21 1953.13 4074.21 1946.69 4072.19 1941.02 4068.16 1936.13 4063.92 1930.92 4058.63 1928.32 4052.29 1928.32ZM4280.19 1916.48C4281.91 1916.48 4284.45 1916.58 4287.8 1916.8 4291.16 1917.01 4293.7 1917.12 4295.42 1917.12 4296.28 1917.12 4296.71 1917.68 4296.71 1918.81 4296.71 1920.32 4296.62 1922.57 4296.46 1925.58 4296.3 1928.59 4296.22 1930.84 4296.22 1932.35 4296.22 1938.9 4296.44 1943.79 4296.87 1947.01 4297.19 1949.05 4300.12 1954.13 4305.65 1962.24 4311.18 1970.35 4314.59 1974.4 4315.88 1974.4 4316.79 1974.4 4319.69 1970.42 4324.58 1962.44 4329.47 1954.46 4332.07 1949.54 4332.4 1947.66 4332.83 1944.97 4333.04 1940.08 4333.04 1932.99 4333.04 1931.43 4332.88 1929.14 4332.56 1926.1 4332.23 1923.07 4332.07 1920.8 4332.07 1919.3 4332.07 1917.95 4332.5 1917.28 4333.36 1917.28 4335.08 1917.28 4337.67 1917.16 4341.14 1916.92 4344.6 1916.68 4347.19 1916.56 4348.91 1916.56 4350.52 1916.56 4351.33 1923.08 4351.33 1936.13 4351.33 1945.21 4351.06 1950.69 4350.52 1952.57 4349.82 1954.99 4343.18 1965.53 4330.58 1984.19 4317.99 2002.86 4310.51 2013.29 4308.15 2015.49 4306 2017.43 4299.07 2018.39 4287.36 2018.39 4285.96 2018.39 4285.06 2018.24 4284.66 2017.95 4284.26 2017.65 4283.34 2015.71 4281.92 2012.11 4280.5 2008.51 4279.79 2006.36 4279.79 2005.66 4279.79 2004.48 4281.21 2003.89 4284.06 2003.89 4290.07 2003.89 4294.5 2003.03 4297.35 2001.31 4298.32 2000.72 4299.78 1998.87 4301.74 1995.75 4303.7 1992.64 4304.68 1990.54 4304.68 1989.47 4304.68 1988.02 4300.79 1982.35 4293 1972.47 4284.78 1962 4280.19 1955.36 4279.22 1952.57 4278.47 1950.37 4278.09 1945.1 4278.09 1936.78 4278.09 1934.74 4278.12 1931.66 4278.17 1927.55 4278.23 1923.44 4278.25 1920.34 4278.25 1918.25 4278.25 1917.07 4278.9 1916.48 4280.19 1916.48ZM4242.58 1913.33C4252.67 1913.33 4259.58 1916.26 4263.28 1922.12 4266.02 1926.41 4267.39 1933.37 4267.39 1942.98 4267.39 1944.65 4267.35 1947.2 4267.27 1950.64 4267.19 1954.07 4267.15 1956.65 4267.15 1958.37 4267.15 1961.97 4267.2 1967.34 4267.31 1974.48 4267.42 1981.63 4267.47 1987 4267.47 1990.6 4267.47 1991.78 4266.93 1992.37 4265.86 1992.37 4264.09 1992.37 4261.44 1992.34 4257.92 1992.29 4254.41 1992.24 4251.76 1992.21 4249.99 1992.21 4249.02 1992.21 4248.54 1991.43 4248.54 1989.87 4248.54 1987.24 4248.62 1983.24 4248.78 1977.87 4248.94 1972.5 4249.02 1968.47 4249.02 1965.78 4249.02 1963.63 4248.99 1960.42 4248.94 1956.15 4248.89 1951.88 4248.86 1948.68 4248.86 1946.53 4248.86 1940.4 4247.97 1936.08 4246.2 1933.56 4244.05 1930.55 4240.08 1929.04 4234.28 1929.04 4231.59 1929.04 4227.86 1930.55 4223.08 1933.56 4218.03 1936.72 4215.51 1939.54 4215.51 1942.02L4215.51 1990.36C4215.51 1991.7 4215 1992.37 4213.97 1992.37 4212.26 1992.37 4209.68 1992.34 4206.24 1992.29 4202.8 1992.24 4200.22 1992.21 4198.51 1992.21 4197.38 1992.21 4196.81 1991.59 4196.81 1990.36 4196.81 1986.11 4196.88 1979.75 4197.02 1971.26 4197.15 1962.77 4197.22 1956.38 4197.22 1952.09 4197.22 1940.65 4196.01 1930.09 4193.59 1920.42 4193.43 1919.94 4193.35 1919.59 4193.35 1919.38 4193.35 1918.84 4193.7 1918.46 4194.4 1918.25 4194.77 1918.19 4197.85 1917.7 4203.62 1916.76 4209.4 1915.82 4212.42 1915.35 4212.69 1915.35 4213.01 1915.35 4213.22 1915.78 4213.33 1916.64 4213.6 1919.97 4214.22 1923.32 4215.18 1926.71 4217.98 1924.51 4221.66 1921.77 4226.22 1918.49 4231.86 1915.05 4237.31 1913.33 4242.58 1913.33ZM3919.41 1913.17C3931.77 1913.17 3939.64 1918.22 3943.02 1928.32 3946.35 1924.02 3950.49 1920.48 3955.43 1917.68 3960.69 1914.68 3965.9 1913.17 3971.06 1913.17 3980.99 1913.17 3987.87 1916.07 3991.68 1921.87 3994.42 1926.17 3995.79 1932.97 3995.79 1942.26 3995.79 1944.03 3995.74 1946.77 3995.63 1950.47 3995.52 1954.18 3995.47 1956.92 3995.47 1958.69 3995.47 1962.08 3995.55 1967.17 3995.71 1973.96 3995.87 1980.75 3995.95 1985.84 3995.95 1989.23 3995.95 1991.32 3995.33 1992.37 3994.1 1992.37 3993.29 1992.37 3992.07 1992.29 3990.43 1992.13 3988.8 1991.97 3987.55 1991.89 3986.69 1991.89 3985.77 1991.89 3984.4 1991.94 3982.58 1992.05 3980.75 1992.15 3979.38 1992.21 3978.47 1992.21 3977.34 1992.21 3976.78 1990.95 3976.78 1988.42 3976.78 1985.95 3976.87 1982.26 3977.06 1977.34 3977.25 1972.43 3977.34 1968.74 3977.34 1966.27 3977.34 1952.68 3977.29 1945.1 3977.18 1943.55 3976.75 1938.01 3975.62 1934.2 3973.8 1932.11 3971.7 1929.85 3967.97 1928.72 3962.6 1928.72 3959.21 1928.72 3955.4 1930.33 3951.16 1933.56 3946.75 1936.94 3944.47 1940.27 3944.31 1943.55 3944.09 1947.74 3943.99 1955.39 3943.99 1966.51 3943.99 1969.14 3944.09 1973.09 3944.31 1978.35 3944.52 1983.61 3944.63 1987.56 3944.63 1990.19 3944.63 1991.64 3944.15 1992.37 3943.18 1992.37 3942.21 1992.37 3940.81 1992.29 3938.95 1992.13 3937.1 1991.97 3935.69 1991.89 3934.72 1991.89 3933.86 1991.89 3932.6 1991.94 3930.94 1992.05 3929.27 1992.15 3928.01 1992.21 3927.15 1992.21 3926.07 1992.21 3925.54 1991.43 3925.54 1989.87 3925.54 1987.29 3925.62 1983.41 3925.78 1978.23 3925.94 1973.05 3926.02 1969.17 3926.02 1966.59L3926.02 1947.17C3926.02 1941.1 3925.3 1936.78 3923.85 1934.2 3921.8 1930.55 3917.91 1928.72 3912.16 1928.72 3908.78 1928.72 3904.75 1930.15 3900.08 1932.99 3894.92 1936.11 3892.34 1939.25 3892.34 1942.42L3892.34 1965.94C3892.34 1968.63 3892.37 1972.63 3892.43 1977.95 3892.48 1983.27 3892.51 1987.24 3892.51 1989.87 3892.51 1991.43 3891.89 1992.21 3890.65 1992.21L3875.67 1992.21C3874.59 1992.21 3874.06 1991.48 3874.06 1990.03 3874.06 1985.68 3874.08 1979.14 3874.14 1970.42 3874.19 1961.69 3874.22 1955.15 3874.22 1950.8 3874.22 1940.97 3873.17 1931.17 3871.07 1921.39 3870.91 1920.69 3870.83 1920.13 3870.83 1919.7 3870.83 1919 3871.07 1918.6 3871.56 1918.49 3873.55 1918.28 3876.45 1917.87 3880.26 1917.28 3882.03 1916.74 3884.69 1916.15 3888.24 1915.51L3888.88 1915.43C3889.52 1915.43 3890.13 1917.32 3890.69 1921.11 3891.26 1924.9 3891.75 1926.79 3892.18 1926.79 3892.18 1926.79 3893.53 1925.61 3896.21 1923.24 3899.38 1920.5 3902.55 1918.33 3905.72 1916.72 3910.28 1914.35 3914.85 1913.17 3919.41 1913.17ZM4055.59 1912.69C4066.23 1912.69 4075.2 1916.85 4082.5 1925.18 4089.54 1933.18 4093.06 1942.61 4093.06 1953.46 4093.06 1964.31 4089.62 1973.73 4082.75 1981.73 4075.55 1990.17 4066.61 1994.38 4055.92 1994.38 4049.26 1994.38 4043.43 1992.32 4038.43 1988.18 4036.18 1986.09 4033.92 1983.96 4031.67 1981.82 4031.34 1981.98 4031.13 1982.41 4031.02 1983.1 4030.97 1983.43 4030.94 1986.43 4030.94 1992.13L4030.86 2014.85C4030.86 2016.57 4030.24 2017.43 4029.01 2017.43 4020.74 2017.43 4015.85 2017.32 4014.34 2017.1 4013.11 2016.94 4012.49 2016.24 4012.49 2015.01 4012.49 2008.13 4012.55 1997.82 4012.65 1984.07 4012.76 1970.32 4012.81 1960.01 4012.81 1953.13 4012.81 1940.51 4012.01 1928.67 4010.4 1917.6 4010.29 1916.96 4010.24 1916.53 4010.24 1916.31 4010.24 1915.72 4010.5 1915.35 4011.04 1915.19 4013.08 1915.08 4016.06 1914.78 4019.98 1914.3 4025.25 1913.33 4028.2 1912.85 4028.85 1912.85 4029.76 1912.85 4030.35 1914.46 4030.62 1917.68 4030.78 1919.83 4030.91 1921.95 4031.02 1924.05 4031.02 1924.48 4031.18 1924.91 4031.51 1925.34 4031.88 1925.12 4032.31 1924.75 4032.79 1924.21 4040.31 1916.53 4047.91 1912.69 4055.59 1912.69ZM3823.49 1912.37C3834.56 1912.37 3843.85 1916.4 3851.37 1924.45 3858.78 1932.29 3862.48 1941.8 3862.48 1952.97 3862.48 1964.2 3858.81 1973.79 3851.45 1981.73 3843.93 1989.95 3834.61 1994.06 3823.49 1994.06 3812.32 1994.06 3802.97 1989.98 3795.45 1981.82 3788.1 1973.92 3784.42 1964.36 3784.42 1953.13 3784.42 1941.91 3788.1 1932.35 3795.45 1924.45 3803.03 1916.4 3812.37 1912.37 3823.49 1912.37ZM4139.17 1912.21C4147.39 1912.21 4154.56 1915.05 4160.68 1920.75 4161.59 1921.82 4163.02 1923.38 4164.95 1925.42 4165.11 1925.58 4165.27 1925.66 4165.43 1925.66 4165.76 1925.66 4166.21 1923.97 4166.8 1920.58 4167.39 1917.2 4168.15 1915.51 4169.06 1915.51 4170.51 1915.51 4173.22 1915.91 4177.2 1916.72 4181.6 1917.68 4183.8 1918.54 4183.8 1919.3 4183.8 1919.51 4183.72 1919.99 4183.56 1920.75 4181.47 1933.05 4180.42 1943.65 4180.42 1952.57 4180.42 1953.11 4181.09 1965.16 4182.43 1988.74L4182.51 1989.87C4182.57 1991.43 4181.86 1992.21 4180.38 1992.21 4178.9 1992.21 4176.67 1992.38 4173.69 1992.73 4170.71 1993.08 4168.5 1993.26 4167.04 1993.26 4166.02 1993.26 4165.25 1991.38 4164.71 1987.62 4164.17 1983.86 4163.66 1981.98 4163.18 1981.98 4162.86 1981.98 4161.41 1983.02 4158.83 1985.12 4155.66 1987.7 4152.7 1989.66 4149.96 1991 4145.72 1993.15 4141.48 1994.22 4137.24 1994.22 4126.81 1994.22 4118.03 1990.06 4110.89 1981.73 4104.12 1973.79 4100.74 1964.52 4100.74 1953.94 4100.74 1942.02 4104.15 1932.16 4110.97 1924.37 4118.11 1916.26 4127.51 1912.21 4139.17 1912.21ZM3740.4 1876.68C3756.67 1876.68 3769.27 1882.18 3778.18 1893.19 3779.04 1894.32 3779.47 1895.26 3779.47 1896.01 3779.47 1896.93 3778.05 1899.62 3775.2 1904.11 3772.35 1908.59 3770.63 1910.84 3770.04 1910.84 3769.35 1910.84 3767.71 1909.52 3765.13 1906.89 3761.96 1903.67 3758.98 1901.25 3756.19 1899.64 3751.57 1897.01 3746.47 1895.69 3740.88 1895.69 3730.24 1895.69 3721.97 1899.74 3716.06 1907.86 3710.8 1915.11 3708.17 1924.24 3708.17 1935.25 3708.17 1946.26 3710.77 1955.47 3715.98 1962.88 3721.89 1971.21 3730.14 1975.37 3740.72 1975.37 3745.98 1975.37 3751.06 1974.05 3755.94 1971.42 3759.17 1969.7 3762.44 1967.26 3765.77 1964.09 3768.57 1961.46 3770.1 1960.14 3770.37 1960.14 3770.69 1960.14 3772.46 1962.28 3775.68 1966.55 3778.91 1970.82 3780.52 1973.17 3780.52 1973.6 3780.52 1974.24 3780.01 1975.16 3778.99 1976.34 3768.51 1988.48 3755.54 1994.54 3740.07 1994.54 3723.96 1994.54 3711.07 1988.66 3701.4 1976.9 3692.38 1965.94 3687.87 1952.25 3687.87 1935.81 3687.87 1919.38 3692.46 1905.63 3701.64 1894.56 3711.42 1882.64 3724.34 1876.68 3740.4 1876.68Z" fill="url(#fill9)" fill-rule="evenodd"/><text fill="#000000" fill-opacity="0" font-family="Arial,Arial_MSFontService,sans-serif" font-size="141.716" x="3687.87" y="2000.68">Company</text></g></svg>